Dinish-SemiBold.ufo
<glyph name="dollar" format="2">
  <advance width="498"/>
  <unicode hex="0024"/>
  <outline>
    <contour>
      <point x="31.333" y="226" type="curve"/>
      <point x="132.667" y="226" type="line"/>
      <point x="139.806" y="157.505"/>
      <point x="173.256" y="123.164"/>
      <point x="242.661" y="123.164" type="curve" smooth="yes"/>
      <point x="303.787" y="123.164"/>
      <point x="341.667" y="149.529"/>
      <point x="341.667" y="214.667" type="curve" smooth="yes"/>
      <point x="341.667" y="384.559"/>
      <point x="45" y="237.944"/>
      <point x="45" y="491.333" type="curve" smooth="yes"/>
      <point x="45" y="589.649"/>
      <point x="101.375" y="659.297"/>
      <point x="198.667" y="676.333" type="curve"/>
      <point x="198.667" y="758.333" type="line"/>
      <point x="288.333" y="758.333" type="line"/>
      <point x="288.333" y="676" type="line"/>
      <point x="385.134" y="657.805"/>
      <point x="433.427" y="588.027"/>
      <point x="440" y="493" type="curve"/>
      <point x="335.667" y="493" type="line"/>
      <point x="330.095" y="553.805"/>
      <point x="303.316" y="586.833"/>
      <point x="240.5" y="586.833" type="curve" smooth="yes"/>
      <point x="184.174" y="586.833"/>
      <point x="151" y="557.584"/>
      <point x="151" y="499.667" type="curve" smooth="yes"/>
      <point x="151" y="339.427"/>
      <point x="449" y="481.227"/>
      <point x="449" y="223" type="curve" smooth="yes"/>
      <point x="449" y="117.654"/>
      <point x="392.26" y="50.588"/>
      <point x="288.333" y="33.333" type="curve"/>
      <point x="288.333" y="-60.667" type="line"/>
      <point x="198.667" y="-60.667" type="line"/>
      <point x="198.667" y="31.667" type="line"/>
      <point x="90.511" y="46.665"/>
      <point x="37.515" y="120.984"/>
    </contour>
  </outline>
</glyph>
<glyph name="ampersand" format="2">
  <advance width="612"/>
  <unicode hex="0026"/>
  <outline>
    <contour>
      <point x="560.333" y="95.667" type="curve"/>
      <point x="560.333" y="0" type="line"/>
      <point x="516" y="0" type="line" smooth="yes"/>
      <point x="460.952" y="0"/>
      <point x="434.976" y="31.752"/>
      <point x="406.667" y="75.333" type="curve"/>
      <point x="359.034" y="18.507"/>
      <point x="307.561" y="-10.667"/>
      <point x="232.333" y="-10.667" type="curve" smooth="yes"/>
      <point x="118.959" y="-10.667"/>
      <point x="50.667" y="59.358"/>
      <point x="50.667" y="172.333" type="curve" smooth="yes"/>
      <point x="50.667" y="266.968"/>
      <point x="112.33" y="332.569"/>
      <point x="180" y="390.333" type="curve"/>
      <point x="146.233" y="438.242"/>
      <point x="101.333" y="498.115"/>
      <point x="101.333" y="559" type="curve" smooth="yes"/>
      <point x="101.333" y="652.739"/>
      <point x="174.213" y="717.667"/>
      <point x="266" y="717.667" type="curve" smooth="yes"/>
      <point x="358.191" y="717.667"/>
      <point x="429.333" y="654.528"/>
      <point x="429.333" y="560.333" type="curve" smooth="yes"/>
      <point x="429.333" y="478.997"/>
      <point x="370.459" y="424.411"/>
      <point x="313" y="375.333" type="curve"/>
      <point x="414.667" y="235" type="line"/>
      <point x="485.667" y="326.333" type="line"/>
      <point x="555.333" y="265" type="line"/>
      <point x="471" y="157" type="line"/>
      <point x="503.373" y="111.003"/>
      <point x="504.94" y="95.667"/>
    </contour>
    <contour>
      <point x="203.667" y="563" type="curve" smooth="yes"/>
      <point x="203.667" y="524.626"/>
      <point x="235.763" y="482.903"/>
      <point x="257" y="452.667" type="curve"/>
      <point x="290.525" y="481.471"/>
      <point x="329.333" y="515.498"/>
      <point x="329.333" y="563.333" type="curve" smooth="yes"/>
      <point x="329.333" y="600.235"/>
      <point x="305.397" y="631.667"/>
      <point x="266.667" y="631.667" type="curve" smooth="yes"/>
      <point x="226.408" y="631.667"/>
      <point x="203.667" y="601.175"/>
    </contour>
    <contour>
      <point x="350.333" y="153" type="curve"/>
      <point x="236.333" y="312" type="line"/>
      <point x="197.673" y="277.742"/>
      <point x="154.667" y="234.746"/>
      <point x="154.667" y="179.333" type="curve" smooth="yes"/>
      <point x="154.667" y="124.363"/>
      <point x="182.797" y="83.333"/>
      <point x="241.333" y="83.333" type="curve" smooth="yes"/>
      <point x="289.5" y="83.333"/>
      <point x="322.329" y="117.892"/>
    </contour>
  </outline>
</glyph>
<glyph name="quotesingle" format="2">
  <advance width="190"/>
  <unicode hex="0027"/>
  <outline>
    <contour>
      <point x="44" y="707" type="line"/>
      <point x="146.667" y="707" type="line"/>
      <point x="146.667" y="424.333" type="line"/>
      <point x="44" y="424.333" type="line"/>
    </contour>
  </outline>
</glyph>
<glyph name="parenleft" format="2">
  <advance width="309"/>
  <unicode hex="0028"/>
  <outline>
    <contour>
      <point x="50.667" y="336" type="curve" smooth="yes"/>
      <point x="50.667" y="489.138"/>
      <point x="95.069" y="630.847"/>
      <point x="180" y="758" type="curve"/>
      <point x="258.667" y="758" type="line"/>
      <point x="193.155" y="628.928"/>
      <point x="158.333" y="480.662"/>
      <point x="158.333" y="336" type="curve" smooth="yes"/>
      <point x="158.333" y="192.244"/>
      <point x="194.389" y="42.554"/>
      <point x="258.667" y="-86" type="curve"/>
      <point x="179" y="-86" type="line"/>
      <point x="95.854" y="41.4"/>
      <point x="50.667" y="183.468"/>
    </contour>
  </outline>
</glyph>
<glyph name="period" format="2">
  <advance width="213"/>
  <unicode hex="002E"/>
  <outline>
    <contour>
      <point x="44" y="128" type="line"/>
      <point x="168.667" y="128" type="line"/>
      <point x="168.667" y="0" type="line"/>
      <point x="44" y="0" type="line"/>
    </contour>
  </outline>
</glyph>
<glyph name="one" format="2">
  <advance width="349"/>
  <unicode hex="0031"/>
  <outline>
    <contour>
      <point x="161.667" y="579" type="line"/>
      <point x="41.667" y="491" type="line"/>
      <point x="41.667" y="615.667" type="line"/>
      <point x="161.333" y="707" type="line"/>
      <point x="275.667" y="707" type="line"/>
      <point x="275.667" y="0" type="line"/>
      <point x="161.667" y="0" type="line"/>
    </contour>
  </outline>
</glyph>
<glyph name="two" format="2">
  <advance width="496"/>
  <unicode hex="0032"/>
  <outline>
    <contour>
      <point x="52.667" y="90.667" type="line"/>
      <point x="288.81" y="407.333" type="line" smooth="yes"/>
      <point x="316.828" y="444.994"/>
      <point x="329.667" y="480.74"/>
      <point x="329.667" y="521.04" type="curve" smooth="yes"/>
      <point x="329.667" y="583.808"/>
      <point x="298.591" y="619.333"/>
      <point x="243.698" y="619.333" type="curve" smooth="yes"/>
      <point x="188.691" y="619.333"/>
      <point x="162.419" y="583.121"/>
      <point x="162.667" y="507.667" type="curve"/>
      <point x="50.667" y="507.667" type="line"/>
      <point x="50.667" y="531.333" type="line" smooth="yes"/>
      <point x="50.667" y="643.169"/>
      <point x="130.885" y="717.667"/>
      <point x="249.942" y="717.667" type="curve" smooth="yes"/>
      <point x="369.972" y="717.667"/>
      <point x="445.667" y="641.958"/>
      <point x="445.667" y="523.245" type="curve" smooth="yes"/>
      <point x="445.667" y="463.345"/>
      <point x="426.23" y="411.074"/>
      <point x="381.667" y="351" type="curve" smooth="yes"/>
      <point x="196.939" y="101" type="line"/>
      <point x="445.667" y="101" type="line"/>
      <point x="445.667" y="0" type="line"/>
      <point x="52.667" y="0" type="line"/>
    </contour>
  </outline>
</glyph>
<glyph name="three" format="2">
  <advance width="513"/>
  <unicode hex="0033"/>
  <outline>
    <contour>
      <point x="51.337" y="187" type="line"/>
      <point x="159.667" y="187" type="line"/>
      <point x="159.293" y="122.048"/>
      <point x="183.278" y="86.667"/>
      <point x="251.667" y="86.667" type="curve" smooth="yes"/>
      <point x="328.506" y="86.667"/>
      <point x="345" y="144.906"/>
      <point x="345" y="210" type="curve" smooth="yes"/>
      <point x="345" y="291.166"/>
      <point x="296.511" y="315.679"/>
      <point x="225.15" y="315.668" type="curve" smooth="yes"/>
      <point x="207" y="315.667" type="line"/>
      <point x="207" y="414" type="line"/>
      <point x="224.817" y="414.002" type="line" smooth="yes"/>
      <point x="303.837" y="414.021"/>
      <point x="333.667" y="443.647"/>
      <point x="333.667" y="526.667" type="curve" smooth="yes"/>
      <point x="333.667" y="580.445"/>
      <point x="304.783" y="619.333"/>
      <point x="248.333" y="619.333" type="curve" smooth="yes"/>
      <point x="181.902" y="619.333"/>
      <point x="163.019" y="576.929"/>
      <point x="163.333" y="517.333" type="curve"/>
      <point x="57.667" y="517.333" type="line"/>
      <point x="57.667" y="535" type="line" smooth="yes"/>
      <point x="57.667" y="654.645"/>
      <point x="137.071" y="717.667"/>
      <point x="252.333" y="717.667" type="curve" smooth="yes"/>
      <point x="374.025" y="717.667"/>
      <point x="445" y="646.182"/>
      <point x="445" y="524.667" type="curve" smooth="yes"/>
      <point x="445" y="462.149"/>
      <point x="418.493" y="403.921"/>
      <point x="360" y="375.333" type="curve"/>
      <point x="440.582" y="343.26"/>
      <point x="456.333" y="268.683"/>
      <point x="456.333" y="190.333" type="curve" smooth="yes"/>
      <point x="456.333" y="67.751"/>
      <point x="374.34" y="-10.667"/>
      <point x="252.667" y="-10.667" type="curve" smooth="yes"/>
      <point x="134.217" y="-10.667"/>
      <point x="51.337" y="46.101"/>
      <point x="51.337" y="170.991" type="curve" smooth="yes"/>
    </contour>
  </outline>
</glyph>
<glyph name="five" format="2">
  <advance width="504"/>
  <unicode hex="0035"/>
  <outline>
    <contour>
      <point x="56.667" y="174.333" type="curve"/>
      <point x="162.333" y="174.333" type="line"/>
      <point x="161.803" y="118.238"/>
      <point x="193.463" y="87"/>
      <point x="249.333" y="87" type="curve" smooth="yes"/>
      <point x="332.352" y="87"/>
      <point x="336.735" y="158.055"/>
      <point x="336.735" y="222.588" type="curve" smooth="yes"/>
      <point x="336.735" y="308.406"/>
      <point x="327.98" y="365"/>
      <point x="249" y="365" type="curve" smooth="yes"/>
      <point x="210.609" y="365"/>
      <point x="180.009" y="344.944"/>
      <point x="166" y="309" type="curve"/>
      <point x="67" y="309" type="line"/>
      <point x="67" y="707" type="line"/>
      <point x="434.333" y="707" type="line"/>
      <point x="434.333" y="607.333" type="line"/>
      <point x="167" y="607.333" type="line"/>
      <point x="167" y="425.667" type="line"/>
      <point x="194.568" y="450.921"/>
      <point x="233.957" y="463"/>
      <point x="271" y="463" type="curve" smooth="yes"/>
      <point x="396.922" y="463"/>
      <point x="448" y="377.427"/>
      <point x="448" y="261" type="curve" smooth="yes"/>
      <point x="448" y="191.333" type="line" smooth="yes"/>
      <point x="448" y="66.48"/>
      <point x="375.875" y="-10.667"/>
      <point x="249.667" y="-10.667" type="curve" smooth="yes"/>
      <point x="128.102" y="-10.667"/>
      <point x="56.434" y="49.469"/>
    </contour>
  </outline>
</glyph>
<glyph name="eight" format="2">
  <advance width="533"/>
  <unicode hex="0038"/>
  <outline>
    <contour>
      <point x="56.667" y="215" type="curve" smooth="yes"/>
      <point x="56.667" y="279.172"/>
      <point x="89.619" y="340.817"/>
      <point x="146.667" y="371.667" type="curve"/>
      <point x="84.014" y="406.137"/>
      <point x="70.667" y="462.911"/>
      <point x="70.667" y="529.667" type="curve" smooth="yes"/>
      <point x="70.667" y="642.173"/>
      <point x="156.765" y="717.667"/>
      <point x="266.667" y="717.667" type="curve" smooth="yes"/>
      <point x="394.426" y="717.667"/>
      <point x="463.667" y="634.532"/>
      <point x="463.667" y="510.667" type="curve" smooth="yes"/>
      <point x="463.667" y="453.41"/>
      <point x="436.964" y="400.541"/>
      <point x="386.667" y="371.667" type="curve"/>
      <point x="457.413" y="332.912"/>
      <point x="476.333" y="268.204"/>
      <point x="476.333" y="192" type="curve" smooth="yes"/>
      <point x="476.333" y="67.949"/>
      <point x="387.003" y="-10.667"/>
      <point x="265.667" y="-10.667" type="curve" smooth="yes"/>
      <point x="120.593" y="-10.667"/>
      <point x="56.667" y="82.953"/>
    </contour>
    <contour>
      <point x="181.792" y="511.451" type="line" smooth="yes"/>
      <point x="181.792" y="458.682"/>
      <point x="211.656" y="417.333"/>
      <point x="266.667" y="417.333" type="curve" smooth="yes"/>
      <point x="324.697" y="417.333"/>
      <point x="352.951" y="458.909"/>
      <point x="352.951" y="511.451" type="curve" smooth="yes"/>
      <point x="352.951" y="529.824" type="line" smooth="yes"/>
      <point x="352.951" y="580.64"/>
      <point x="318.602" y="619.333"/>
      <point x="266.667" y="619.333" type="curve" smooth="yes"/>
      <point x="211.837" y="619.333"/>
      <point x="181.792" y="580.142"/>
      <point x="181.792" y="529.824" type="curve" smooth="yes"/>
    </contour>
    <contour>
      <point x="168.143" y="194.602" type="line" smooth="yes"/>
      <point x="168.143" y="135.176"/>
      <point x="205.533" y="86.667"/>
      <point x="266.667" y="86.667" type="curve" smooth="yes"/>
      <point x="333.592" y="86.667"/>
      <point x="365.288" y="134.439"/>
      <point x="365.288" y="194.602" type="curve" smooth="yes"/>
      <point x="365.288" y="217.156" type="line" smooth="yes"/>
      <point x="365.288" y="276.979"/>
      <point x="328.896" y="321.333"/>
      <point x="266.667" y="321.333" type="curve" smooth="yes"/>
      <point x="202.727" y="321.333"/>
      <point x="168.143" y="276.161"/>
      <point x="168.143" y="217.156" type="curve" smooth="yes"/>
    </contour>
  </outline>
</glyph>
<glyph name="semicolon" format="2">
  <advance width="213"/>
  <unicode hex="003B"/>
  <outline>
    <contour>
      <point x="44" y="474.667" type="line"/>
      <point x="168.667" y="474.667" type="line"/>
      <point x="168.667" y="346" type="line"/>
      <point x="44" y="346" type="line"/>
    </contour>
    <contour>
      <point x="65" y="125" type="line"/>
      <point x="167.333" y="125" type="line"/>
      <point x="167.333" y="-69" type="line"/>
      <point x="65" y="-157.333" type="line"/>
    </contour>
  </outline>
</glyph>
<glyph name="question" format="2">
  <advance width="454"/>
  <unicode hex="003F"/>
  <outline>
    <contour>
      <point x="166" y="247.667" type="line" smooth="yes"/>
      <point x="166" y="279.096"/>
      <point x="168.898" y="300.264"/>
      <point x="183.333" y="327.667" type="curve"/>
      <point x="212.096" y="395.056"/>
      <point x="302.667" y="457.565"/>
      <point x="302.667" y="535.333" type="curve" smooth="yes"/>
      <point x="302.667" y="588.849"/>
      <point x="272.953" y="617"/>
      <point x="220" y="617" type="curve" smooth="yes"/>
      <point x="159.752" y="617"/>
      <point x="140.485" y="581.356"/>
      <point x="139" y="526" type="curve"/>
      <point x="31.667" y="526" type="line"/>
      <point x="33.633" y="648.298"/>
      <point x="100.231" y="717"/>
      <point x="223.333" y="717" type="curve" smooth="yes"/>
      <point x="330.418" y="717"/>
      <point x="415" y="650.387"/>
      <point x="415" y="538.667" type="curve" smooth="yes"/>
      <point x="415" y="451.2"/>
      <point x="352.662" y="388.245"/>
      <point x="303.667" y="321.667" type="curve" smooth="yes"/>
      <point x="294.807" y="309.603"/>
      <point x="285.95" y="297.288"/>
      <point x="281" y="283" type="curve" smooth="yes"/>
      <point x="272.112" y="257.266"/>
      <point x="275.667" y="219.078"/>
      <point x="275.667" y="192.667" type="curve"/>
      <point x="166" y="192.667" type="line"/>
    </contour>
    <contour>
      <point x="160.667" y="117.667" type="line"/>
      <point x="280.333" y="117.667" type="line"/>
      <point x="280.333" y="0" type="line"/>
      <point x="160.667" y="0" type="line"/>
    </contour>
  </outline>
</glyph>
<glyph name="C" format="2">
  <advance width="615"/>
  <unicode hex="0043"/>
  <anchor x="307.333" y="707" name="top"/>
  <outline>
    <contour>
      <point x="56.667" y="269.333" type="curve" smooth="yes"/>
      <point x="56.667" y="438.333" type="line" smooth="yes"/>
      <point x="56.667" y="609.103"/>
      <point x="132.064" y="716.667"/>
      <point x="312" y="716.667" type="curve" smooth="yes"/>
      <point x="459.292" y="716.667"/>
      <point x="561.688" y="635.337"/>
      <point x="561" y="482.333" type="curve"/>
      <point x="446.667" y="482.333" type="line"/>
      <point x="447.05" y="567.307"/>
      <point x="394.544" y="615.333"/>
      <point x="311.333" y="615.333" type="curve" smooth="yes"/>
      <point x="197.366" y="615.333"/>
      <point x="171.333" y="530.11"/>
      <point x="171.333" y="432.667" type="curve" smooth="yes"/>
      <point x="171.333" y="269.333" type="line" smooth="yes"/>
      <point x="171.333" y="172.355"/>
      <point x="203.144" y="94.667"/>
      <point x="313" y="94.667" type="curve" smooth="yes"/>
      <point x="397.236" y="94.667"/>
      <point x="447.039" y="141.059"/>
      <point x="446.667" y="226.667" type="curve"/>
      <point x="559" y="226.667" type="line"/>
      <point x="559" y="220.667" type="line" smooth="yes"/>
      <point x="559" y="68.261"/>
      <point x="455.886" y="-8"/>
      <point x="310.667" y="-8" type="curve" smooth="yes"/>
      <point x="131.525" y="-8"/>
      <point x="56.667" y="99.487"/>
    </contour>
  </outline>
</glyph>
<glyph name="G" format="2">
  <advance width="615"/>
  <unicode hex="0047"/>
  <anchor x="305.667" y="707" name="top"/>
  <outline>
    <contour>
      <point x="56.667" y="269.333" type="curve" smooth="yes"/>
      <point x="56.667" y="438.333" type="line" smooth="yes"/>
      <point x="56.667" y="608.324"/>
      <point x="131.955" y="716.667"/>
      <point x="311.333" y="716.667" type="curve" smooth="yes"/>
      <point x="456.129" y="716.667"/>
      <point x="561.201" y="637.934"/>
      <point x="560.333" y="486" type="curve"/>
      <point x="446" y="486" type="line"/>
      <point x="446" y="569.329"/>
      <point x="391.184" y="615.333"/>
      <point x="311" y="615.333" type="curve" smooth="yes"/>
      <point x="197.046" y="615.333"/>
      <point x="171.333" y="529.974"/>
      <point x="171.333" y="432.667" type="curve" smooth="yes"/>
      <point x="171.333" y="269.333" type="line" smooth="yes"/>
      <point x="171.333" y="170.957"/>
      <point x="203.843" y="94.667"/>
      <point x="314.667" y="94.667" type="curve" smooth="yes"/>
      <point x="435.921" y="94.667"/>
      <point x="448.693" y="171.274"/>
      <point x="448.693" y="272.849" type="curve"/>
      <point x="448.667" y="281.667" type="line"/>
      <point x="309" y="281.667" type="line"/>
      <point x="309" y="377.333" type="line"/>
      <point x="561" y="377.333" type="line"/>
      <point x="561" y="261.333" type="line" smooth="yes"/>
      <point x="561" y="93.453"/>
      <point x="485.227" y="-8"/>
      <point x="310" y="-8" type="curve" smooth="yes"/>
      <point x="131.446" y="-8"/>
      <point x="56.667" y="100.294"/>
    </contour>
  </outline>
</glyph>
<glyph name="H" format="2">
  <advance width="630"/>
  <unicode hex="0048"/>
  <anchor x="312.667" y="707" name="top"/>
  <outline>
    <contour>
      <point x="562.667" y="707" type="line"/>
      <point x="562.667" y="0" type="line"/>
      <point x="448.333" y="0" type="line"/>
      <point x="448.333" y="308.667" type="line"/>
      <point x="182.333" y="308.667" type="line"/>
      <point x="182.333" y="0" type="line"/>
      <point x="67.333" y="0" type="line"/>
      <point x="67.333" y="707" type="line"/>
      <point x="182.333" y="707" type="line"/>
      <point x="182.333" y="409" type="line"/>
      <point x="448.333" y="409" type="line"/>
      <point x="448.333" y="707" type="line"/>
    </contour>
  </outline>
</glyph>
<glyph name="Q" format="2">
  <advance width="617"/>
  <unicode hex="0051"/>
  <anchor x="309.333" y="707" name="top"/>
  <outline>
    <contour>
      <point x="56.667" y="269.333" type="curve" smooth="yes"/>
      <point x="56.667" y="438.333" type="line" smooth="yes"/>
      <point x="56.667" y="608.499"/>
      <point x="129.852" y="716.667"/>
      <point x="309.667" y="716.667" type="curve" smooth="yes"/>
      <point x="490.001" y="716.667"/>
      <point x="561" y="606.847"/>
      <point x="561" y="438.333" type="curve" smooth="yes"/>
      <point x="561" y="269.333" type="line" smooth="yes"/>
      <point x="561" y="179.167"/>
      <point x="539.608" y="82.215"/>
      <point x="458.667" y="30.667" type="curve"/>
      <point x="534.333" y="-108" type="line"/>
      <point x="446.333" y="-157" type="line"/>
      <point x="363.333" y="-4" type="line"/>
      <point x="344.605" y="-6.845"/>
      <point x="325.612" y="-8"/>
      <point x="306.667" y="-8" type="curve" smooth="yes"/>
      <point x="127.676" y="-8"/>
      <point x="56.667" y="100.7"/>
    </contour>
    <contour>
      <point x="171.333" y="269.333" type="line" smooth="yes"/>
      <point x="171.333" y="171.797"/>
      <point x="198.327" y="94.667"/>
      <point x="309.667" y="94.667" type="curve" smooth="yes"/>
      <point x="418.441" y="94.667"/>
      <point x="446.667" y="174.449"/>
      <point x="446.667" y="269.333" type="curve" smooth="yes"/>
      <point x="446.667" y="432.667" type="line" smooth="yes"/>
      <point x="446.667" y="528.176"/>
      <point x="421.742" y="615.333"/>
      <point x="309.667" y="615.333" type="curve" smooth="yes"/>
      <point x="193.702" y="615.333"/>
      <point x="171.333" y="531.65"/>
      <point x="171.333" y="432.667" type="curve" smooth="yes"/>
    </contour>
  </outline>
</glyph>
<glyph name="T" format="2">
  <advance width="502"/>
  <unicode hex="0054"/>
  <anchor x="251.667" y="707" name="top"/>
  <outline>
    <contour>
      <point x="496.333" y="606.333" type="line"/>
      <point x="309.333" y="606.333" type="line"/>
      <point x="309.333" y="0" type="line"/>
      <point x="194" y="0" type="line"/>
      <point x="194" y="606.333" type="line"/>
      <point x="6.667" y="606.333" type="line"/>
      <point x="6.667" y="707" type="line"/>
      <point x="496.333" y="707" type="line"/>
    </contour>
  </outline>
</glyph>
<glyph name="V" format="2">
  <advance width="556"/>
  <unicode hex="0056"/>
  <anchor x="278.667" y="707" name="top"/>
  <outline>
    <contour>
      <point x="5" y="707" type="line"/>
      <point x="124.333" y="707" type="line"/>
      <point x="278.667" y="185.667" type="line"/>
      <point x="432.333" y="707" type="line"/>
      <point x="551.333" y="707" type="line"/>
      <point x="324" y="0" type="line"/>
      <point x="231.667" y="0" type="line"/>
    </contour>
  </outline>
</glyph>
<glyph name="X" format="2">
  <advance width="598"/>
  <unicode hex="0058"/>
  <anchor x="299.333" y="707" name="top"/>
  <outline>
    <contour>
      <point x="231" y="368" type="line"/>
      <point x="22.333" y="707" type="line"/>
      <point x="158.333" y="707" type="line"/>
      <point x="299.333" y="461" type="line"/>
      <point x="439" y="707" type="line"/>
      <point x="570" y="707" type="line"/>
      <point x="364.667" y="372.333" type="line"/>
      <point x="592.667" y="0" type="line"/>
      <point x="456" y="0" type="line"/>
      <point x="296.667" y="276.667" type="line"/>
      <point x="136" y="0" type="line"/>
      <point x="5" y="0" type="line"/>
    </contour>
  </outline>
</glyph>
<glyph name="bracketleft" format="2">
  <advance width="315"/>
  <unicode hex="005B"/>
  <outline>
    <contour>
      <point x="67.333" y="758.667" type="line"/>
      <point x="264.667" y="758.667" type="line"/>
      <point x="264.667" y="657.333" type="line"/>
      <point x="176" y="657.333" type="line"/>
      <point x="176" y="15.333" type="line"/>
      <point x="264.667" y="15.333" type="line"/>
      <point x="264.667" y="-86" type="line"/>
      <point x="67.333" y="-86" type="line"/>
    </contour>
  </outline>
</glyph>
<glyph name="bracketright" format="2">
  <advance width="316"/>
  <unicode hex="005D"/>
  <outline>
    <contour>
      <point x="50.667" y="15.333" type="line"/>
      <point x="140" y="15.333" type="line"/>
      <point x="140" y="655.333" type="line"/>
      <point x="50.667" y="655.333" type="line"/>
      <point x="50.667" y="756" type="line"/>
      <point x="248.667" y="756" type="line"/>
      <point x="248.667" y="-86" type="line"/>
      <point x="50.667" y="-86" type="line"/>
    </contour>
  </outline>
</glyph>
<glyph name="b" format="2">
  <advance width="525"/>
  <unicode hex="0062"/>
  <anchor x="116" y="707" name="top"/>
  <outline>
    <contour>
      <point x="168" y="55.677" type="curve"/>
      <point x="168" y="0" type="line"/>
      <point x="62.333" y="0" type="line"/>
      <point x="62.333" y="707" type="line"/>
      <point x="170" y="707" type="line"/>
      <point x="170" y="467.653" type="line"/>
      <point x="199.082" y="512.599"/>
      <point x="243.388" y="534.667"/>
      <point x="296.595" y="534.667" type="curve" smooth="yes"/>
      <point x="426.079" y="534.667"/>
      <point x="474.667" y="432.833"/>
      <point x="474.667" y="317.21" type="curve" smooth="yes"/>
      <point x="474.667" y="211.79" type="line" smooth="yes"/>
      <point x="474.667" y="98.827"/>
      <point x="426.611" y="-6"/>
      <point x="299.093" y="-6" type="curve" smooth="yes"/>
      <point x="246.584" y="-6"/>
      <point x="199.177" y="12.116"/>
    </contour>
    <contour>
      <point x="366.667" y="215.794" type="curve" smooth="yes"/>
      <point x="366.667" y="312.541" type="line" smooth="yes"/>
      <point x="366.667" y="377.344"/>
      <point x="346.42" y="438.667"/>
      <point x="270.778" y="438.667" type="curve" smooth="yes"/>
      <point x="196.539" y="438.667"/>
      <point x="169.333" y="375.698"/>
      <point x="169.333" y="310.536" type="curve" smooth="yes"/>
      <point x="169.333" y="216.128" type="line" smooth="yes"/>
      <point x="169.333" y="149.317"/>
      <point x="198.959" y="89.333"/>
      <point x="273.631" y="89.333" type="curve" smooth="yes"/>
      <point x="348.372" y="89.333"/>
      <point x="366.667" y="152.837"/>
    </contour>
  </outline>
</glyph>
<glyph name="c" format="2">
  <advance width="516"/>
  <unicode hex="0063"/>
  <anchor x="262" y="527.667" name="top"/>
  <outline>
    <contour>
      <point x="50.667" y="213.667" type="curve" smooth="yes"/>
      <point x="50.667" y="315" type="line" smooth="yes"/>
      <point x="50.667" y="452.68"/>
      <point x="121.075" y="534.667"/>
      <point x="262" y="534.667" type="curve" smooth="yes"/>
      <point x="385.168" y="534.667"/>
      <point x="466.223" y="469.624"/>
      <point x="465.667" y="342" type="curve"/>
      <point x="362.333" y="342" type="line"/>
      <point x="362.704" y="403.772"/>
      <point x="324.684" y="438.333"/>
      <point x="264.333" y="438.333" type="curve" smooth="yes"/>
      <point x="184.388" y="438.333"/>
      <point x="158" y="384.535"/>
      <point x="158" y="312.333" type="curve" smooth="yes"/>
      <point x="158" y="215.667" type="line" smooth="yes"/>
      <point x="158" y="142.808"/>
      <point x="182.959" y="89.333"/>
      <point x="264" y="89.333" type="curve" smooth="yes"/>
      <point x="323.543" y="89.333"/>
      <point x="362.718" y="121.673"/>
      <point x="362.333" y="183.667" type="curve"/>
      <point x="465.667" y="183.667" type="line"/>
      <point x="465.667" y="177.667" type="line" smooth="yes"/>
      <point x="465.667" y="55.96"/>
      <point x="377.08" y="-6"/>
      <point x="262.333" y="-6" type="curve" smooth="yes"/>
      <point x="120.403" y="-6"/>
      <point x="50.667" y="74.881"/>
    </contour>
  </outline>
</glyph>
<glyph name="f" format="2">
  <advance width="332"/>
  <unicode hex="0066"/>
  <anchor x="147" y="707" name="top"/>
  <outline>
    <contour>
      <point x="201.333" y="527.667" type="curve"/>
      <point x="301" y="527.667" type="line"/>
      <point x="301" y="450" type="line"/>
      <point x="201.333" y="450" type="line"/>
      <point x="201.333" y="0" type="line"/>
      <point x="94" y="0" type="line"/>
      <point x="94" y="450" type="line"/>
      <point x="34.667" y="450" type="line"/>
      <point x="34.667" y="527.667" type="line"/>
      <point x="94" y="527.667" type="line"/>
      <point x="94" y="568.667" type="line" smooth="yes"/>
      <point x="94" y="656.186"/>
      <point x="147.429" y="707"/>
      <point x="234.333" y="707" type="curve" smooth="yes"/>
      <point x="301" y="707" type="line"/>
      <point x="301" y="631" type="line"/>
      <point x="209.027" y="631"/>
      <point x="201.333" y="611.674"/>
    </contour>
  </outline>
</glyph>
<glyph name="g" format="2">
  <advance width="525"/>
  <unicode hex="0067"/>
  <anchor x="252" y="527.667" name="top"/>
  <outline>
    <contour>
      <point x="58.667" y="-17.333" type="curve"/>
      <point x="163" y="-17.333" type="line"/>
      <point x="170.31" y="-61.812"/>
      <point x="218.224" y="-79"/>
      <point x="258" y="-79" type="curve" smooth="yes"/>
      <point x="337.563" y="-79"/>
      <point x="357.031" y="-24.273"/>
      <point x="357.031" y="45.081" type="curve"/>
      <point x="356.667" y="100" type="line"/>
      <point x="327.018" y="57.092"/>
      <point x="277.712" y="38"/>
      <point x="226.667" y="38" type="curve" smooth="yes"/>
      <point x="99.257" y="38"/>
      <point x="50.667" y="143.224"/>
      <point x="50.667" y="256" type="curve" smooth="yes"/>
      <point x="50.667" y="318.333" type="line" smooth="yes"/>
      <point x="50.667" y="431.286"/>
      <point x="98.786" y="535.667"/>
      <point x="226.333" y="535.667" type="curve" smooth="yes"/>
      <point x="278.218" y="535.667"/>
      <point x="326.712" y="513.004"/>
      <point x="355.333" y="469" type="curve"/>
      <point x="355.333" y="529" type="line"/>
      <point x="462.667" y="529" type="line"/>
      <point x="462.667" y="39.667" type="line" smooth="yes"/>
      <point x="462.667" y="-88.659"/>
      <point x="382.19" y="-166"/>
      <point x="254.667" y="-166" type="curve" smooth="yes"/>
      <point x="158.671" y="-166"/>
      <point x="65.061" y="-125.039"/>
    </contour>
    <contour>
      <point x="355.333" y="260.333" type="curve" smooth="yes"/>
      <point x="355.333" y="311.667" type="line" smooth="yes"/>
      <point x="355.333" y="375.694"/>
      <point x="328.946" y="439.667"/>
      <point x="255.333" y="439.667" type="curve" smooth="yes"/>
      <point x="179.44" y="439.667"/>
      <point x="159" y="378.192"/>
      <point x="159" y="313.333" type="curve" smooth="yes"/>
      <point x="159" y="260" type="line" smooth="yes"/>
      <point x="159" y="197.232"/>
      <point x="177.378" y="134.333"/>
      <point x="252" y="134.333" type="curve" smooth="yes"/>
      <point x="327.935" y="134.333"/>
      <point x="355.333" y="192.7"/>
    </contour>
  </outline>
</glyph>
<glyph name="l" format="2">
  <advance width="288"/>
  <unicode hex="006C"/>
  <anchor x="116.333" y="707" name="top"/>
  <outline>
    <contour>
      <point x="62.333" y="153.333" type="curve" smooth="yes"/>
      <point x="62.333" y="707" type="line"/>
      <point x="170" y="707" type="line"/>
      <point x="170" y="160" type="line" smooth="yes"/>
      <point x="170" y="99.966"/>
      <point x="211.66" y="94.252"/>
      <point x="268" y="94.333" type="curve"/>
      <point x="268" y="0" type="line"/>
      <point x="213" y="0" type="line" smooth="yes"/>
      <point x="116.934" y="0"/>
      <point x="62.333" y="58.273"/>
    </contour>
  </outline>
</glyph>
<glyph name="r" format="2">
  <advance width="359"/>
  <unicode hex="0072"/>
  <anchor x="196" y="527.667" name="top"/>
  <outline>
    <contour>
      <point x="62.333" y="527.667" type="line"/>
      <point x="167.667" y="527.667" type="line"/>
      <point x="167.667" y="468" type="line"/>
      <point x="193.591" y="514.647"/>
      <point x="245.347" y="538"/>
      <point x="297.333" y="538" type="curve" smooth="yes"/>
      <point x="311.075" y="538"/>
      <point x="324.852" y="537.092"/>
      <point x="338.333" y="534.333" type="curve"/>
      <point x="338.333" y="432" type="line"/>
      <point x="319.11" y="438.314"/>
      <point x="298.933" y="442"/>
      <point x="278.667" y="442" type="curve" smooth="yes"/>
      <point x="207.671" y="442"/>
      <point x="170" y="389.514"/>
      <point x="170" y="322.333" type="curve" smooth="yes"/>
      <point x="170" y="0" type="line"/>
      <point x="62.333" y="0" type="line"/>
    </contour>
  </outline>
</glyph>
<glyph name="s" format="2">
  <advance width="481"/>
  <unicode hex="0073"/>
  <anchor x="239.667" y="527.667" name="top"/>
  <outline>
    <contour>
      <point x="40.667" y="158" type="curve"/>
      <point x="142.667" y="158" type="line"/>
      <point x="142.667" y="102.157"/>
      <point x="194.518" y="81.667"/>
      <point x="241.667" y="81.667" type="curve" smooth="yes"/>
      <point x="286.691" y="81.667"/>
      <point x="342.667" y="96.939"/>
      <point x="342.667" y="152" type="curve" smooth="yes"/>
      <point x="342.667" y="274.267"/>
      <point x="48" y="163.897"/>
      <point x="48" y="375.333" type="curve" smooth="yes"/>
      <point x="48" y="484.014"/>
      <point x="143.395" y="534.667"/>
      <point x="241" y="534.667" type="curve" smooth="yes"/>
      <point x="337.931" y="534.667"/>
      <point x="437.819" y="488.426"/>
      <point x="437" y="378" type="curve"/>
      <point x="336.333" y="378" type="line"/>
      <point x="336.333" y="431.848"/>
      <point x="286.052" y="449"/>
      <point x="241.667" y="449" type="curve" smooth="yes"/>
      <point x="199.049" y="449"/>
      <point x="150" y="433.434"/>
      <point x="150" y="382.333" type="curve" smooth="yes"/>
      <point x="150" y="261.999"/>
      <point x="445.667" y="371.826"/>
      <point x="445.667" y="159.333" type="curve" smooth="yes"/>
      <point x="445.667" y="40.132"/>
      <point x="342.774" y="-6"/>
      <point x="238" y="-6" type="curve" smooth="yes"/>
      <point x="134.745" y="-6"/>
      <point x="39.713" y="42.581"/>
    </contour>
  </outline>
</glyph>
<glyph name="v" format="2">
  <advance width="478"/>
  <unicode hex="0076"/>
  <anchor x="239.667" y="527.667" name="top"/>
  <outline>
    <contour>
      <point x="10.667" y="527.667" type="line"/>
      <point x="125.333" y="527.667" type="line"/>
      <point x="239.667" y="164" type="line"/>
      <point x="352.667" y="527.667" type="line"/>
      <point x="467" y="527.667" type="line"/>
      <point x="284" y="0" type="line"/>
      <point x="194" y="0" type="line"/>
    </contour>
  </outline>
</glyph>
<glyph name="w" format="2">
  <advance width="746"/>
  <unicode hex="0077"/>
  <anchor x="372.333" y="527.667" name="top"/>
  <outline>
    <contour>
      <point x="10.667" y="527.667" type="line"/>
      <point x="125.333" y="527.667" type="line"/>
      <point x="219.667" y="164.333" type="line"/>
      <point x="331.333" y="527.667" type="line"/>
      <point x="414" y="527.667" type="line"/>
      <point x="525" y="164.333" type="line"/>
      <point x="619.667" y="527.667" type="line"/>
      <point x="735" y="527.667" type="line"/>
      <point x="578.333" y="0" type="line"/>
      <point x="485.333" y="0" type="line"/>
      <point x="372.333" y="369.667" type="line"/>
      <point x="259.333" y="0" type="line"/>
      <point x="167.333" y="0" type="line"/>
    </contour>
  </outline>
</glyph>
<glyph name="x" format="2">
  <advance width="457"/>
  <unicode hex="0078"/>
  <anchor x="231.667" y="527.667" name="top"/>
  <outline>
    <contour>
      <point x="333.333" y="0" type="line"/>
      <point x="225" y="181.333" type="line"/>
      <point x="124.333" y="0" type="line"/>
      <point x="10.667" y="0" type="line"/>
      <point x="172" y="271.667" type="line"/>
      <point x="20.333" y="527.667" type="line"/>
      <point x="134.333" y="527.667" type="line"/>
      <point x="232.333" y="363" type="line"/>
      <point x="322.667" y="527.667" type="line"/>
      <point x="437" y="527.667" type="line"/>
      <point x="283" y="276.333" type="line"/>
      <point x="446.333" y="0" type="line"/>
    </contour>
  </outline>
</glyph>
<glyph name="z" format="2">
  <advance width="465"/>
  <unicode hex="007A"/>
  <anchor x="240" y="527.667" name="top"/>
  <outline>
    <contour>
      <point x="415.667" y="435.667" type="line"/>
      <point x="168.667" y="92.333" type="line"/>
      <point x="415.667" y="92.333" type="line"/>
      <point x="415.667" y="0" type="line"/>
      <point x="50.667" y="0" type="line"/>
      <point x="50.667" y="92.333" type="line"/>
      <point x="297" y="435.667" type="line"/>
      <point x="50.667" y="435.667" type="line"/>
      <point x="50.667" y="527.667" type="line"/>
      <point x="415.667" y="527.667" type="line"/>
    </contour>
  </outline>
</glyph>
<glyph name="braceleft" format="2">
  <advance width="361"/>
  <unicode hex="007B"/>
  <outline>
    <contour>
      <point x="50.667" y="291" type="curve"/>
      <point x="50.667" y="385.333" type="line"/>
      <point x="107.619" y="386.013"/>
      <point x="126.667" y="413.174"/>
      <point x="126.667" y="467.667" type="curve" smooth="yes"/>
      <point x="126.667" y="637" type="line" smooth="yes"/>
      <point x="126.667" y="715.351"/>
      <point x="167.504" y="758"/>
      <point x="246.333" y="758" type="curve" smooth="yes"/>
      <point x="311.333" y="758" type="line"/>
      <point x="311.333" y="668.333" type="line"/>
      <point x="269.375" y="668.333"/>
      <point x="231" y="675.727"/>
      <point x="231" y="621" type="curve" smooth="yes"/>
      <point x="231" y="465.333" type="line" smooth="yes"/>
      <point x="231" y="406.381"/>
      <point x="224.028" y="359.028"/>
      <point x="161.667" y="338" type="curve"/>
      <point x="223.528" y="315.555"/>
      <point x="231" y="270.668"/>
      <point x="231" y="211" type="curve" smooth="yes"/>
      <point x="231" y="50.333" type="line" smooth="yes"/>
      <point x="231" y="-4.34"/>
      <point x="269.356" y="2.667"/>
      <point x="311.333" y="2.667" type="curve"/>
      <point x="311.333" y="-86" type="line"/>
      <point x="246.333" y="-86" type="line" smooth="yes"/>
      <point x="166.92" y="-86"/>
      <point x="126.667" y="-43.021"/>
      <point x="126.667" y="35.667" type="curve" smooth="yes"/>
      <point x="126.667" y="208.667" type="line" smooth="yes"/>
      <point x="126.667" y="263.16"/>
      <point x="107.619" y="290.32"/>
    </contour>
  </outline>
</glyph>
<glyph name="asciitilde" format="2">
  <advance width="535"/>
  <unicode hex="007E"/>
  <outline>
    <contour>
      <point x="186.333" y="266.333" type="curve" smooth="yes"/>
      <point x="149.133" y="266.333"/>
      <point x="130.442" y="236.507"/>
      <point x="114" y="207.667" type="curve"/>
      <point x="42.667" y="251.333" type="line"/>
      <point x="69.037" y="310.387"/>
      <point x="114.882" y="357"/>
      <point x="183.333" y="357" type="curve" smooth="yes"/>
      <point x="254.547" y="357"/>
      <point x="299.014" y="297.667"/>
      <point x="349" y="297.667" type="curve" smooth="yes"/>
      <point x="388.281" y="297.667"/>
      <point x="405.881" y="324.523"/>
      <point x="422.333" y="356" type="curve"/>
      <point x="493.667" y="312" type="line"/>
      <point x="466.889" y="253.271"/>
      <point x="419.862" y="205.667"/>
      <point x="351.333" y="205.667" type="curve" smooth="yes"/>
      <point x="280.877" y="205.667"/>
      <point x="237.425" y="266.333"/>
    </contour>
  </outline>
</glyph>
<glyph name="cent" format="2">
  <advance width="545"/>
  <unicode hex="00A2"/>
  <outline>
    <contour>
      <point x="50.667" y="213.667" type="curve" smooth="yes"/>
      <point x="50.667" y="315" type="line" smooth="yes"/>
      <point x="50.667" y="442.955"/>
      <point x="110.92" y="528.579"/>
      <point x="244" y="534" type="curve"/>
      <point x="244" y="640.667" type="line"/>
      <point x="304" y="640.667" type="line"/>
      <point x="304" y="531.667" type="line"/>
      <point x="411.86" y="516.657"/>
      <point x="465.667" y="449.589"/>
      <point x="465.667" y="342" type="curve"/>
      <point x="362.333" y="342" type="line"/>
      <point x="362.333" y="405.653"/>
      <point x="325.849" y="438.493"/>
      <point x="262.812" y="438.493" type="curve" smooth="yes"/>
      <point x="183.587" y="438.493"/>
      <point x="158" y="383.427"/>
      <point x="158" y="312.333" type="curve" smooth="yes"/>
      <point x="158" y="215.667" type="line" smooth="yes"/>
      <point x="158" y="143.991"/>
      <point x="181.767" y="89.144"/>
      <point x="262.631" y="89.144" type="curve" smooth="yes"/>
      <point x="324.697" y="89.144"/>
      <point x="362.333" y="120.188"/>
      <point x="362.333" y="183.667" type="curve"/>
      <point x="465.667" y="183.667" type="line"/>
      <point x="465.667" y="177.667" type="line" smooth="yes"/>
      <point x="465.667" y="76.211"/>
      <point x="402.731" y="10.848"/>
      <point x="304" y="-3" type="curve"/>
      <point x="304" y="-102" type="line"/>
      <point x="244" y="-102" type="line"/>
      <point x="244" y="-5" type="line"/>
      <point x="110.749" y="0.433"/>
      <point x="50.667" y="85.342"/>
    </contour>
  </outline>
</glyph>
<glyph name="section" format="2">
  <advance width="523"/>
  <unicode hex="00A7"/>
  <outline>
    <contour>
      <point x="81.667" y="1.333" type="curve"/>
      <point x="182" y="1.333" type="line"/>
      <point x="181.929" y="-50.008"/>
      <point x="202.951" y="-80.667"/>
      <point x="257" y="-80.667" type="curve" smooth="yes"/>
      <point x="301.615" y="-80.667"/>
      <point x="331" y="-56.023"/>
      <point x="331" y="-10" type="curve" smooth="yes"/>
      <point x="331" y="138.099"/>
      <point x="67.333" y="30.32"/>
      <point x="67.333" y="282" type="curve" smooth="yes"/>
      <point x="67.333" y="351.088"/>
      <point x="97.37" y="410.92"/>
      <point x="161.333" y="441" type="curve"/>
      <point x="108.948" y="469.633"/>
      <point x="90" y="514.592"/>
      <point x="90" y="572.667" type="curve" smooth="yes"/>
      <point x="90" y="673.859"/>
      <point x="167.687" y="732.333"/>
      <point x="264" y="732.333" type="curve" smooth="yes"/>
      <point x="373.656" y="732.333"/>
      <point x="437.027" y="672.817"/>
      <point x="437" y="562" type="curve"/>
      <point x="337.333" y="562" type="line"/>
      <point x="337.405" y="610.045"/>
      <point x="316.392" y="641.333"/>
      <point x="265.667" y="641.333" type="curve" smooth="yes"/>
      <point x="222.79" y="641.333"/>
      <point x="196" y="614.889"/>
      <point x="196" y="572" type="curve" smooth="yes"/>
      <point x="196" y="427.836"/>
      <point x="455.667" y="532.438"/>
      <point x="455.667" y="283.333" type="curve" smooth="yes"/>
      <point x="455.667" y="217.754"/>
      <point x="425.67" y="151.282"/>
      <point x="362.667" y="124.667" type="curve"/>
      <point x="419.384" y="94.569"/>
      <point x="436.333" y="49.16"/>
      <point x="436.333" y="-12.667" type="curve" smooth="yes"/>
      <point x="436.333" y="-115.52"/>
      <point x="355.303" y="-172"/>
      <point x="258.667" y="-172" type="curve" smooth="yes"/>
      <point x="146.028" y="-172"/>
      <point x="81.637" y="-112.974"/>
    </contour>
    <contour>
      <point x="349.333" y="282.667" type="curve" smooth="yes"/>
      <point x="349.333" y="338.499"/>
      <point x="322.144" y="382.333"/>
      <point x="262" y="382.333" type="curve" smooth="yes"/>
      <point x="200.887" y="382.333"/>
      <point x="173.333" y="339.673"/>
      <point x="173.333" y="282.667" type="curve" smooth="yes"/>
      <point x="173.333" y="224.872"/>
      <point x="200.195" y="183"/>
      <point x="262" y="183" type="curve" smooth="yes"/>
      <point x="321.696" y="183"/>
      <point x="349.333" y="227.236"/>
    </contour>
  </outline>
</glyph>
<glyph name="copyright" format="2">
  <advance width="851"/>
  <unicode hex="00A9"/>
  <outline>
    <contour>
      <point x="68" y="349.333" type="curve" smooth="yes"/>
      <point x="68" y="560.422"/>
      <point x="204.41" y="709"/>
      <point x="418.667" y="709" type="curve" smooth="yes"/>
      <point x="633.109" y="709"/>
      <point x="770.333" y="560.949"/>
      <point x="770.333" y="349.333" type="curve" smooth="yes"/>
      <point x="770.333" y="137.194"/>
      <point x="633.248" y="-9.333"/>
      <point x="418.667" y="-9.333" type="curve" smooth="yes"/>
      <point x="204.763" y="-9.333"/>
      <point x="68" y="138.178"/>
    </contour>
    <contour>
      <point x="695.667" y="349.333" type="curve" smooth="yes"/>
      <point x="695.667" y="521.042"/>
      <point x="595.006" y="638.667"/>
      <point x="418.667" y="638.667" type="curve" smooth="yes"/>
      <point x="242.369" y="638.667"/>
      <point x="142.667" y="520.655"/>
      <point x="142.667" y="349.333" type="curve" smooth="yes"/>
      <point x="142.667" y="177.81"/>
      <point x="242.566" y="61.333"/>
      <point x="418.667" y="61.333" type="curve" smooth="yes"/>
      <point x="594.784" y="61.333"/>
      <point x="695.667" y="177.444"/>
    </contour>
    <contour>
      <point x="266.667" y="313" type="curve" smooth="yes"/>
      <point x="266.667" y="387.333" type="line" smooth="yes"/>
      <point x="266.667" y="488.794"/>
      <point x="316.833" y="549.333"/>
      <point x="421.333" y="549.333" type="curve" smooth="yes"/>
      <point x="514.274" y="549.333"/>
      <point x="571" y="502.392"/>
      <point x="571" y="407.333" type="curve"/>
      <point x="494.667" y="407.333" type="line"/>
      <point x="494.667" y="452.36"/>
      <point x="469.411" y="478"/>
      <point x="424" y="478" type="curve" smooth="yes"/>
      <point x="364.324" y="478"/>
      <point x="346" y="439.739"/>
      <point x="346" y="385.667" type="curve" smooth="yes"/>
      <point x="346" y="314.667" type="line" smooth="yes"/>
      <point x="346" y="259.912"/>
      <point x="362.654" y="222.333"/>
      <point x="424" y="222.333" type="curve" smooth="yes"/>
      <point x="470.287" y="222.333"/>
      <point x="494.667" y="245.835"/>
      <point x="494.667" y="292" type="curve"/>
      <point x="571" y="292" type="line"/>
      <point x="571" y="287" type="line" smooth="yes"/>
      <point x="571" y="196.59"/>
      <point x="506.367" y="152"/>
      <point x="421.333" y="152" type="curve" smooth="yes"/>
      <point x="316.15" y="152"/>
      <point x="266.667" y="210.774"/>
    </contour>
  </outline>
</glyph>
<glyph name="ordfeminine" format="2">
  <advance width="353"/>
  <unicode hex="00AA"/>
  <outline>
    <contour>
      <point x="299.333" y="651.333" type="curve" smooth="yes"/>
      <point x="299.333" y="440" type="line"/>
      <point x="219.333" y="440" type="line"/>
      <point x="219.333" y="468" type="line"/>
      <point x="196.474" y="444.896"/>
      <point x="175.389" y="436"/>
      <point x="142.667" y="436" type="curve" smooth="yes"/>
      <point x="78.448" y="436"/>
      <point x="36.667" y="473.181"/>
      <point x="36.667" y="538.667" type="curve" smooth="yes"/>
      <point x="36.667" y="640.807"/>
      <point x="146.535" y="632"/>
      <point x="216.667" y="632" type="curve"/>
      <point x="216.667" y="655.667" type="line" smooth="yes"/>
      <point x="216.667" y="687.107"/>
      <point x="198.393" y="702.667"/>
      <point x="167.667" y="702.667" type="curve" smooth="yes"/>
      <point x="142.955" y="702.667"/>
      <point x="122.333" y="692.072"/>
      <point x="122.333" y="664.667" type="curve"/>
      <point x="45.333" y="664.667" type="line"/>
      <point x="45.333" y="666.667" type="line" smooth="yes"/>
      <point x="45.333" y="737.945"/>
      <point x="105.132" y="766"/>
      <point x="168.333" y="766" type="curve" smooth="yes"/>
      <point x="244.651" y="766"/>
      <point x="299.333" y="733.905"/>
    </contour>
    <contour>
      <point x="216.667" y="555.667" type="curve" smooth="yes"/>
      <point x="216.667" y="575.333" type="line"/>
      <point x="163" y="575.333" type="line" smooth="yes"/>
      <point x="139.352" y="575.333"/>
      <point x="116.333" y="568.801"/>
      <point x="116.333" y="541" type="curve" smooth="yes"/>
      <point x="116.333" y="513.54"/>
      <point x="137.616" y="504"/>
      <point x="162" y="504" type="curve" smooth="yes"/>
      <point x="197.877" y="504"/>
      <point x="216.667" y="518.419"/>
    </contour>
  </outline>
</glyph>
<glyph name="logicalnot" format="2">
  <advance width="535"/>
  <unicode hex="00AC"/>
  <outline>
    <contour>
      <point x="374.667" y="263.333" type="line"/>
      <point x="53" y="263.333" type="line"/>
      <point x="53" y="360.667" type="line"/>
      <point x="481.667" y="360.667" type="line"/>
      <point x="481.667" y="126.333" type="line"/>
      <point x="374.667" y="126.333" type="line"/>
    </contour>
  </outline>
</glyph>
<glyph name="acute" format="2">
  <advance width="512"/>
  <unicode hex="00B4"/>
  <outline>
    <contour>
      <point x="252" y="730" type="line"/>
      <point x="374" y="730" type="line"/>
      <point x="239.333" y="596.667" type="line"/>
      <point x="144.333" y="596.667" type="line"/>
    </contour>
  </outline>
</glyph>
<glyph name="mu" format="2">
  <advance width="530"/>
  <unicode hex="00B5"/>
  <outline>
    <contour>
      <point x="62.333" y="527.667" type="line"/>
      <point x="170" y="527.667" type="line"/>
      <point x="170" y="194.667" type="line" smooth="yes"/>
      <point x="170" y="135.678"/>
      <point x="200.133" y="89"/>
      <point x="263.667" y="89" type="curve" smooth="yes"/>
      <point x="326.195" y="89"/>
      <point x="360" y="135.794"/>
      <point x="360" y="194.667" type="curve" smooth="yes"/>
      <point x="360" y="527.667" type="line"/>
      <point x="468.333" y="527.667" type="line"/>
      <point x="468.333" y="0" type="line"/>
      <point x="362.333" y="0" type="line"/>
      <point x="362.333" y="52.333" type="line"/>
      <point x="334.963" y="12.779"/>
      <point x="295.532" y="-6.667"/>
      <point x="247.667" y="-6.667" type="curve" smooth="yes"/>
      <point x="219.41" y="-6.667"/>
      <point x="191.802" y="0.201"/>
      <point x="169.333" y="17.333" type="curve"/>
      <point x="169.333" y="-158.667" type="line"/>
      <point x="62.333" y="-158.667" type="line"/>
    </contour>
  </outline>
</glyph>
<glyph name="periodcentered" format="2">
  <advance width="213"/>
  <unicode hex="00B7"/>
  <outline>
    <contour>
      <point x="44" y="346.333" type="line"/>
      <point x="168.667" y="346.333" type="line"/>
      <point x="168.667" y="218" type="line"/>
      <point x="44" y="218" type="line"/>
    </contour>
  </outline>
</glyph>
<glyph name="ordmasculine" format="2">
  <advance width="354"/>
  <unicode hex="00BA"/>
  <outline>
    <contour>
      <point x="43.333" y="571.333" type="curve" smooth="yes"/>
      <point x="43.333" y="631.333" type="line" smooth="yes"/>
      <point x="43.333" y="718.584"/>
      <point x="89.838" y="766"/>
      <point x="177.667" y="766" type="curve" smooth="yes"/>
      <point x="265.92" y="766"/>
      <point x="311.333" y="718.777"/>
      <point x="311.333" y="631.333" type="curve" smooth="yes"/>
      <point x="311.333" y="571.333" type="line" smooth="yes"/>
      <point x="311.333" y="484.374"/>
      <point x="265.661" y="436"/>
      <point x="177.667" y="436" type="curve" smooth="yes"/>
      <point x="90.105" y="436"/>
      <point x="43.333" y="484.574"/>
    </contour>
    <contour>
      <point x="228" y="571.333" type="curve" smooth="yes"/>
      <point x="228" y="630.667" type="line" smooth="yes"/>
      <point x="228" y="665.574"/>
      <point x="215.448" y="691.667"/>
      <point x="177" y="691.667" type="curve" smooth="yes"/>
      <point x="138.552" y="691.667"/>
      <point x="126" y="665.574"/>
      <point x="126" y="630.667" type="curve" smooth="yes"/>
      <point x="126" y="571.333" type="line" smooth="yes"/>
      <point x="126" y="536.34"/>
      <point x="138.579" y="510.667"/>
      <point x="177" y="510.667" type="curve" smooth="yes"/>
      <point x="215.421" y="510.667"/>
      <point x="228" y="536.34"/>
    </contour>
  </outline>
</glyph>
<glyph name="onehalf" format="2">
  <advance width="793"/>
  <unicode hex="00BD"/>
  <outline>
    <contour>
      <point x="99.667" y="605.333" type="line"/>
      <point x="29" y="553.667" type="line"/>
      <point x="29" y="653.667" type="line"/>
      <point x="100.333" y="707" type="line"/>
      <point x="194" y="707" type="line"/>
      <point x="194" y="278.667" type="line"/>
      <point x="99.667" y="278.667" type="line"/>
    </contour>
    <contour>
      <point x="493.333" y="72.333" type="line"/>
      <point x="634" y="253.333" type="line" smooth="yes"/>
      <point x="649.718" y="273.614"/>
      <point x="656.667" y="289.311"/>
      <point x="656.667" y="315" type="curve" smooth="yes"/>
      <point x="656.667" y="339.283"/>
      <point x="643.844" y="357.667"/>
      <point x="618" y="357.667" type="curve" smooth="yes"/>
      <point x="585.016" y="357.667"/>
      <point x="580" y="328.312"/>
      <point x="580" y="302" type="curve"/>
      <point x="490.333" y="302" type="line"/>
      <point x="490.333" y="317" type="line" smooth="yes"/>
      <point x="490.333" y="395.008"/>
      <point x="548.656" y="435.333"/>
      <point x="622" y="435.333" type="curve" smooth="yes"/>
      <point x="701.624" y="435.333"/>
      <point x="751.333" y="387.357"/>
      <point x="751.333" y="308" type="curve" smooth="yes"/>
      <point x="751.333" y="265.841"/>
      <point x="735.7" y="240.388"/>
      <point x="710.667" y="208.333" type="curve" smooth="yes"/>
      <point x="611.667" y="80.667" type="line"/>
      <point x="751.667" y="80.667" type="line"/>
      <point x="751.667" y="0" type="line"/>
      <point x="493.333" y="0" type="line"/>
    </contour>
    <contour>
      <point x="498.667" y="710.333" type="line"/>
      <point x="587.667" y="710.333" type="line"/>
      <point x="197" y="0" type="line"/>
      <point x="108.667" y="0" type="line"/>
    </contour>
  </outline>
</glyph>
<glyph name="Icircumflex" format="2">
  <advance width="263"/>
  <unicode hex="00CE"/>
  <outline>
    <contour>
      <point x="74.6667" y="707" type="line"/>
      <point x="189" y="707" type="line"/>
      <point x="189" y="0" type="line"/>
      <point x="74.6667" y="0" type="line"/>
    </contour>
    <contour>
      <point x="90.3333" y="916.667" type="line"/>
      <point x="171.333" y="916.667" type="line"/>
      <point x="286.333" y="764.667" type="line"/>
      <point x="199.333" y="764.667" type="line"/>
      <point x="131.333" y="850.667" type="line"/>
      <point x="63.0003" y="764.667" type="line"/>
      <point x="-24.6667" y="764.667" type="line"/>
    </contour>
  </outline>
</glyph>
<glyph name="Eth" format="2">
  <advance width="685"/>
  <unicode hex="00D0"/>
  <outline>
    <contour>
      <point x="617" y="429.333" type="curve" smooth="yes"/>
      <point x="617" y="278" type="line" smooth="yes"/>
      <point x="617" y="109.015"/>
      <point x="542.457" y="0"/>
      <point x="363.667" y="0" type="curve" smooth="yes"/>
      <point x="119.667" y="0" type="line"/>
      <point x="119.667" y="308.667" type="line"/>
      <point x="39" y="308.667" type="line"/>
      <point x="39" y="409.667" type="line"/>
      <point x="119.667" y="409.667" type="line"/>
      <point x="119.667" y="707" type="line"/>
      <point x="366.333" y="707" type="line" smooth="yes"/>
      <point x="545.182" y="707"/>
      <point x="617" y="597.385"/>
    </contour>
    <contour>
      <point x="502.667" y="423.667" type="line" smooth="yes"/>
      <point x="502.667" y="517.823"/>
      <point x="477.392" y="606.333"/>
      <point x="366" y="606.333" type="curve" smooth="yes"/>
      <point x="234.333" y="606.333" type="line"/>
      <point x="234.333" y="409.667" type="line"/>
      <point x="362.667" y="409.667" type="line"/>
      <point x="362.667" y="308.667" type="line"/>
      <point x="234.333" y="308.667" type="line"/>
      <point x="234.333" y="100.667" type="line"/>
      <point x="366" y="100.667" type="line" smooth="yes"/>
      <point x="475.044" y="100.667"/>
      <point x="502.667" y="183.47"/>
      <point x="502.667" y="277.333" type="curve" smooth="yes"/>
    </contour>
  </outline>
</glyph>
<glyph name="Oslash" format="2">
  <advance width="617"/>
  <unicode hex="00D8"/>
  <outline>
    <contour>
      <point x="506" y="635.667" type="line"/>
      <point x="550.065" y="581.227"/>
      <point x="561" y="506.288"/>
      <point x="561" y="438.333" type="curve" smooth="yes"/>
      <point x="561" y="269.333" type="line" smooth="yes"/>
      <point x="561" y="100.33"/>
      <point x="485.661" y="-8"/>
      <point x="306.667" y="-8" type="curve" smooth="yes"/>
      <point x="254.011" y="-8"/>
      <point x="200.269" y="1.65"/>
      <point x="155.667" y="31" type="curve"/>
      <point x="125.667" y="-20" type="line"/>
      <point x="56.667" y="-20" type="line"/>
      <point x="110.333" y="72.667" type="line"/>
      <point x="67.397" y="127.675"/>
      <point x="56.667" y="201.479"/>
      <point x="56.667" y="269.333" type="curve" smooth="yes"/>
      <point x="56.667" y="438.333" type="line" smooth="yes"/>
      <point x="56.667" y="608.549"/>
      <point x="129.836" y="716.667"/>
      <point x="309.667" y="716.667" type="curve" smooth="yes"/>
      <point x="362.663" y="716.667"/>
      <point x="417.131" y="706.499"/>
      <point x="462" y="677" type="curve"/>
      <point x="492.667" y="730.333" type="line"/>
      <point x="561" y="730.333" type="line"/>
    </contour>
    <contour>
      <point x="181" y="193.333" type="curve"/>
      <point x="405" y="580" type="line"/>
      <point x="380.531" y="606.742"/>
      <point x="344.778" y="615.333"/>
      <point x="309.667" y="615.333" type="curve" smooth="yes"/>
      <point x="193.691" y="615.333"/>
      <point x="171.333" y="531.63"/>
      <point x="171.333" y="432.667" type="curve" smooth="yes"/>
      <point x="171.333" y="269.333" type="line" smooth="yes"/>
      <point x="171.333" y="243.903"/>
      <point x="172.747" y="217.422"/>
    </contour>
    <contour>
      <point x="436.667" y="516.333" type="curve"/>
      <point x="212" y="128" type="line"/>
      <point x="237.555" y="102.474"/>
      <point x="274.691" y="94.667"/>
      <point x="309.667" y="94.667" type="curve" smooth="yes"/>
      <point x="418.555" y="94.667"/>
      <point x="446.667" y="174.625"/>
      <point x="446.667" y="269.333" type="curve" smooth="yes"/>
      <point x="446.667" y="432.667" type="line" smooth="yes"/>
      <point x="446.667" y="460.731"/>
      <point x="444.201" y="489.438"/>
    </contour>
  </outline>
</glyph>
<glyph name="Thorn" format="2">
  <advance width="583"/>
  <unicode hex="00DE"/>
  <outline>
    <contour>
      <point x="553.333" y="367.667" type="curve" smooth="yes"/>
      <point x="553.333" y="229.105"/>
      <point x="457.754" y="156.333"/>
      <point x="325.333" y="156.333" type="curve" smooth="yes"/>
      <point x="182.333" y="156.333" type="line"/>
      <point x="182.333" y="0" type="line"/>
      <point x="67.333" y="0" type="line"/>
      <point x="67.333" y="707" type="line"/>
      <point x="182.333" y="707" type="line"/>
      <point x="182.333" y="586" type="line"/>
      <point x="325.333" y="586" type="line" smooth="yes"/>
      <point x="461.867" y="586"/>
      <point x="553.333" y="507.906"/>
    </contour>
    <contour>
      <point x="439" y="367.667" type="curve" smooth="yes"/>
      <point x="439" y="445.426"/>
      <point x="395.018" y="485.667"/>
      <point x="318.333" y="485.667" type="curve" smooth="yes"/>
      <point x="182.333" y="485.667" type="line"/>
      <point x="182.333" y="256" type="line"/>
      <point x="318.333" y="256" type="line" smooth="yes"/>
      <point x="390.362" y="256"/>
      <point x="439" y="292.261"/>
    </contour>
  </outline>
</glyph>
<glyph name="ae" format="2">
  <advance width="815"/>
  <unicode hex="00E6"/>
  <outline>
    <contour>
      <point x="40.667" y="155.333" type="curve" smooth="yes"/>
      <point x="40.667" y="257.315"/>
      <point x="103.42" y="308.497"/>
      <point x="218.997" y="308.497" type="curve" smooth="yes"/>
      <point x="342" y="308.497" type="line"/>
      <point x="342" y="355.333" type="line" smooth="yes"/>
      <point x="342" y="418.49"/>
      <point x="309.175" y="450"/>
      <point x="246.333" y="450" type="curve" smooth="yes"/>
      <point x="196.949" y="450"/>
      <point x="156.333" y="427.822"/>
      <point x="156.333" y="373.667" type="curve"/>
      <point x="55" y="373.667" type="line"/>
      <point x="55" y="378" type="line" smooth="yes"/>
      <point x="55" y="488.381"/>
      <point x="148.295" y="534.667"/>
      <point x="246.667" y="534.667" type="curve" smooth="yes"/>
      <point x="304.544" y="534.667"/>
      <point x="362.785" y="520.722"/>
      <point x="403.333" y="477.333" type="curve"/>
      <point x="443.09" y="518.648"/>
      <point x="497.583" y="534.667"/>
      <point x="554" y="534.667" type="curve" smooth="yes"/>
      <point x="698.869" y="534.667"/>
      <point x="764.333" y="437.673"/>
      <point x="764.333" y="301.667" type="curve" smooth="yes"/>
      <point x="764.333" y="234" type="line"/>
      <point x="449.333" y="234" type="line"/>
      <point x="449.333" y="214.333" type="line" smooth="yes"/>
      <point x="449.333" y="137.305"/>
      <point x="478.056" y="87.333"/>
      <point x="561.667" y="87.333" type="curve" smooth="yes"/>
      <point x="607.534" y="87.333"/>
      <point x="657" y="112.466"/>
      <point x="657" y="164.667" type="curve"/>
      <point x="760.333" y="164.667" type="line"/>
      <point x="760.333" y="159.667" type="line" smooth="yes"/>
      <point x="760.333" y="45.818"/>
      <point x="667.455" y="-6"/>
      <point x="564.667" y="-6" type="curve" smooth="yes"/>
      <point x="499.867" y="-6"/>
      <point x="438.419" y="13.223"/>
      <point x="396.333" y="64.333" type="curve"/>
      <point x="353.397" y="13.989"/>
      <point x="291.691" y="-6"/>
      <point x="226.667" y="-6" type="curve" smooth="yes"/>
      <point x="124.344" y="-6"/>
      <point x="40.667" y="44.116"/>
    </contour>
    <contour>
      <point x="449.333" y="309.333" type="curve"/>
      <point x="656.667" y="309.333" type="line"/>
      <point x="656.667" y="324.667" type="line" smooth="yes"/>
      <point x="656.667" y="395.334"/>
      <point x="630.069" y="441"/>
      <point x="554" y="441" type="curve" smooth="yes"/>
      <point x="468.715" y="441"/>
      <point x="449.333" y="383.193"/>
    </contour>
    <contour>
      <point x="146" y="157.667" type="curve" smooth="yes"/>
      <point x="146" y="100.764"/>
      <point x="183.261" y="80.667"/>
      <point x="235.667" y="80.667" type="curve" smooth="yes"/>
      <point x="307.998" y="80.667"/>
      <point x="342" y="119.217"/>
      <point x="342" y="190.333" type="curve" smooth="yes"/>
      <point x="342" y="232.667" type="line"/>
      <point x="237.333" y="232.667" type="line" smooth="yes"/>
      <point x="186.146" y="232.667"/>
      <point x="146" y="214.614"/>
    </contour>
  </outline>
</glyph>
<glyph name="thorn" format="2">
  <advance width="525"/>
  <unicode hex="00FE"/>
  <outline>
    <contour>
      <point x="62.333" y="707" type="line"/>
      <point x="170" y="707" type="line"/>
      <point x="170" y="467.333" type="line"/>
      <point x="198.843" y="511.762"/>
      <point x="241.703" y="534.667"/>
      <point x="294.667" y="534.667" type="curve" smooth="yes"/>
      <point x="425.796" y="534.667"/>
      <point x="474.667" y="433.7"/>
      <point x="474.667" y="317" type="curve" smooth="yes"/>
      <point x="474.667" y="211.667" type="line" smooth="yes"/>
      <point x="474.667" y="98.976"/>
      <point x="427.349" y="-6"/>
      <point x="299" y="-6" type="curve" smooth="yes"/>
      <point x="246.055" y="-6"/>
      <point x="199.432" y="11.822"/>
      <point x="168" y="55.667" type="curve"/>
      <point x="168" y="-158.667" type="line"/>
      <point x="62.333" y="-158.667" type="line"/>
    </contour>
    <contour>
      <point x="366.667" y="215.667" type="curve" smooth="yes"/>
      <point x="366.667" y="312.333" type="line" smooth="yes"/>
      <point x="366.667" y="378.058"/>
      <point x="346.412" y="438.333"/>
      <point x="270" y="438.333" type="curve" smooth="yes"/>
      <point x="195.55" y="438.333"/>
      <point x="169.333" y="375.027"/>
      <point x="169.333" y="310.333" type="curve" smooth="yes"/>
      <point x="169.333" y="216" type="line" smooth="yes"/>
      <point x="169.333" y="149.288"/>
      <point x="198.558" y="89.333"/>
      <point x="273.333" y="89.333" type="curve" smooth="yes"/>
      <point x="348.467" y="89.333"/>
      <point x="366.667" y="151.738"/>
    </contour>
  </outline>
</glyph>
<glyph name="Hbar" format="2">
  <advance width="630"/>
  <unicode hex="0126"/>
  <outline>
    <component base="H"/>
    <contour>
      <point x="20" y="611.667" type="line"/>
      <point x="608.667" y="611.667" type="line"/>
      <point x="608.667" y="510.667" type="line"/>
      <point x="20" y="510.667" type="line"/>
    </contour>
  </outline>
</glyph>
<glyph name="Iogonek" format="2">
  <advance width="254"/>
  <unicode hex="012E"/>
  <outline>
    <component base="I"/>
    <contour>
      <point x="87" y="8.667" type="line"/>
      <point x="168.963" y="8.667" type="line"/>
      <point x="63" y="-111" type="line"/>
      <point x="89.21" y="-141.927"/>
      <point x="125.293" y="-143.959"/>
      <point x="163.333" y="-143.667" type="curve"/>
      <point x="163.333" y="-223.667" type="line"/>
      <point x="78.702" y="-222.73"/>
      <point x="1.262" y="-188.75"/>
      <point x="-28" y="-104" type="curve"/>
    </contour>
  </outline>
</glyph>
<glyph name="iogonek" format="2">
  <advance width="244"/>
  <unicode hex="012F"/>
  <outline>
    <component base="i"/>
    <contour>
      <point x="75.58" y="0" type="line"/>
      <point x="173.054" y="0" type="line"/>
      <point x="58.246" y="-76.333" type="line"/>
      <point x="80.839" y="-104.227"/>
      <point x="118.835" y="-109.152"/>
      <point x="158.58" y="-109" type="curve"/>
      <point x="158.58" y="-189" type="line"/>
      <point x="72.716" y="-189"/>
      <point x="-3.01" y="-155.085"/>
      <point x="-32.754" y="-69.333" type="curve"/>
    </contour>
  </outline>
</glyph>
<glyph name="ij" format="2">
  <advance width="497"/>
  <unicode hex="0133"/>
  <outline>
    <contour>
      <point x="63.667" y="707" type="line"/>
      <point x="171.333" y="707" type="line"/>
      <point x="171.333" y="608.333" type="line"/>
      <point x="63.667" y="608.333" type="line"/>
    </contour>
    <contour>
      <point x="327" y="707" type="line"/>
      <point x="434.333" y="707" type="line"/>
      <point x="434.333" y="608" type="line"/>
      <point x="327" y="608" type="line"/>
    </contour>
    <contour>
      <point x="62.333" y="256" type="curve" smooth="yes"/>
      <point x="62.333" y="527.667" type="line"/>
      <point x="170.667" y="527.667" type="line"/>
      <point x="170.667" y="260" type="line" smooth="yes"/>
      <point x="170.667" y="189.455"/>
      <point x="188.63" y="143.667"/>
      <point x="250.333" y="143.667" type="curve" smooth="yes"/>
      <point x="303.051" y="143.667"/>
      <point x="327" y="194.112"/>
      <point x="327" y="260.333" type="curve" smooth="yes"/>
      <point x="327" y="527.667" type="line"/>
      <point x="434.333" y="527.667" type="line"/>
      <point x="434.333" y="39.667" type="line" smooth="yes"/>
      <point x="434.333" y="-79.093"/>
      <point x="369.421" y="-166"/>
      <point x="259.667" y="-166" type="curve" smooth="yes"/>
      <point x="164.41" y="-166"/>
      <point x="76.988" y="-122.473"/>
      <point x="70.333" y="-17.333" type="curve"/>
      <point x="174.667" y="-17.333" type="line"/>
      <point x="180.12" y="-51.64"/>
      <point x="215.79" y="-79"/>
      <point x="249.667" y="-79" type="curve" smooth="yes"/>
      <point x="315.433" y="-79"/>
      <point x="328.365" y="-24.231"/>
      <point x="328.351" y="31.398" type="curve" smooth="yes"/>
      <point x="328.333" y="100" type="line"/>
      <point x="314.797" y="69.414"/>
      <point x="275.501" y="44.666"/>
      <point x="236.046" y="44.666" type="curve" smooth="yes"/>
      <point x="106.936" y="44.666"/>
      <point x="62.333" y="137.866"/>
    </contour>
  </outline>
</glyph>
<glyph name="Scaron" format="2">
  <advance width="560"/>
  <unicode hex="0160"/>
  <outline>
    <contour>
      <point x="28.667" y="210" type="curve"/>
      <point x="138" y="210" type="line"/>
      <point x="148.164" y="124.318"/>
      <point x="194.394" y="92.333"/>
      <point x="278.333" y="92.333" type="curve" smooth="yes"/>
      <point x="350.44" y="92.333"/>
      <point x="408" y="117.635"/>
      <point x="408" y="198.333" type="curve" smooth="yes"/>
      <point x="408" y="392.684"/>
      <point x="43.333" y="223.74"/>
      <point x="43.333" y="508.667" type="curve" smooth="yes"/>
      <point x="43.333" y="647.192"/>
      <point x="148.213" y="716.667"/>
      <point x="277.667" y="716.667" type="curve" smooth="yes"/>
      <point x="411.581" y="716.667"/>
      <point x="496.962" y="645.275"/>
      <point x="509" y="510.333" type="curve"/>
      <point x="398.333" y="510.333" type="line"/>
      <point x="392.942" y="587.098"/>
      <point x="350.232" y="619.667"/>
      <point x="275.333" y="619.667" type="curve" smooth="yes"/>
      <point x="208.773" y="619.667"/>
      <point x="154.333" y="590.356"/>
      <point x="154.333" y="517" type="curve" smooth="yes"/>
      <point x="154.333" y="336.799"/>
      <point x="520.667" y="494.507"/>
      <point x="520.667" y="207.333" type="curve" smooth="yes"/>
      <point x="520.667" y="56.922"/>
      <point x="409.648" y="-6"/>
      <point x="272" y="-6" type="curve" smooth="yes"/>
      <point x="129.008" y="-6"/>
      <point x="39.659" y="63.68"/>
    </contour>
    <contour>
      <point x="123" y="911.667" type="line"/>
      <point x="211" y="911.667" type="line"/>
      <point x="279.333" y="826.667" type="line"/>
      <point x="346.333" y="911.667" type="line"/>
      <point x="433.667" y="911.667" type="line"/>
      <point x="319" y="760" type="line"/>
      <point x="237.667" y="760" type="line"/>
    </contour>
  </outline>
</glyph>
<glyph name="Tbar" format="2">
  <advance width="502"/>
  <unicode hex="0166"/>
  <outline>
    <component base="T"/>
    <contour>
      <point x="112.333" y="377.333" type="line"/>
      <point x="393" y="377.333" type="line"/>
      <point x="393" y="280.667" type="line"/>
      <point x="112.333" y="280.667" type="line"/>
    </contour>
  </outline>
</glyph>
<glyph name="Uogonek" format="2">
  <advance width="635"/>
  <unicode hex="0172"/>
  <outline>
    <component base="U" xOffset="0.667"/>
    <contour>
      <point x="248" y="-91" type="curve"/>
      <point x="363" y="21.667" type="line"/>
      <point x="464.934" y="42.333" type="line"/>
      <point x="339" y="-98" type="line"/>
      <point x="361.927" y="-124.792"/>
      <point x="399.699" y="-130.845"/>
      <point x="439.333" y="-130.667" type="curve"/>
      <point x="439.333" y="-210.667" type="line"/>
      <point x="354.14" y="-210.667"/>
      <point x="277.608" y="-176.438"/>
    </contour>
  </outline>
</glyph>
<glyph name="uogonek" format="2">
  <advance width="533"/>
  <unicode hex="0173"/>
  <outline>
    <component base="u"/>
    <contour>
      <point x="188" y="-91" type="curve"/>
      <point x="303.333" y="25" type="line"/>
      <point x="399.172" y="36" type="line"/>
      <point x="279" y="-98" type="line"/>
      <point x="299.751" y="-122.88"/>
      <point x="339.699" y="-130.845"/>
      <point x="379.333" y="-130.667" type="curve"/>
      <point x="379.333" y="-210.667" type="line"/>
      <point x="294.14" y="-210.667"/>
      <point x="217.608" y="-176.438"/>
    </contour>
  </outline>
</glyph>
<glyph name="Zcaron" format="2">
  <advance width="521"/>
  <unicode hex="017D"/>
  <outline>
    <contour>
      <point x="490" y="101.333" type="line"/>
      <point x="490" y="0" type="line"/>
      <point x="34.333" y="0" type="line"/>
      <point x="34.333" y="101.333" type="line"/>
      <point x="357.667" y="606.333" type="line"/>
      <point x="42.667" y="606.333" type="line"/>
      <point x="42.667" y="707" type="line"/>
      <point x="482.667" y="707" type="line"/>
      <point x="482.667" y="606.333" type="line"/>
      <point x="160" y="101.333" type="line"/>
    </contour>
    <contour>
      <point x="104" y="911.667" type="line"/>
      <point x="192.333" y="911.667" type="line"/>
      <point x="260" y="826.667" type="line"/>
      <point x="328" y="911.667" type="line"/>
      <point x="415" y="911.667" type="line"/>
      <point x="300" y="760" type="line"/>
      <point x="219.333" y="760" type="line"/>
    </contour>
  </outline>
</glyph>
<glyph name="zcaron" format="2">
  <advance width="465"/>
  <unicode hex="017E"/>
  <outline>
    <contour>
      <point x="415.667" y="435.667" type="line"/>
      <point x="168.667" y="92.333" type="line"/>
      <point x="415.667" y="92.333" type="line"/>
      <point x="415.667" y="0" type="line"/>
      <point x="50.667" y="0" type="line"/>
      <point x="50.667" y="92.333" type="line"/>
      <point x="297" y="435.667" type="line"/>
      <point x="50.667" y="435.667" type="line"/>
      <point x="50.667" y="527.667" type="line"/>
      <point x="415.667" y="527.667" type="line"/>
    </contour>
    <contour>
      <point x="77" y="733.333" type="line"/>
      <point x="165" y="733.333" type="line"/>
      <point x="232.333" y="647.667" type="line"/>
      <point x="300.333" y="733.333" type="line"/>
      <point x="387.667" y="733.333" type="line"/>
      <point x="273" y="581.667" type="line"/>
      <point x="191.667" y="581.667" type="line"/>
    </contour>
  </outline>
</glyph>
<glyph name="florin" format="2">
  <advance width="424"/>
  <unicode hex="0192"/>
  <outline>
    <contour>
      <point x="10.333" y="-56" type="line"/>
      <point x="75.999" y="-56"/>
      <point x="108.68" y="-43.068"/>
      <point x="117.333" y="15.333" type="curve" smooth="yes"/>
      <point x="164.333" y="332.333" type="line"/>
      <point x="82" y="332.333" type="line"/>
      <point x="82" y="428.667" type="line"/>
      <point x="178.333" y="428.667" type="line"/>
      <point x="196.036" y="542.759" type="line" smooth="yes"/>
      <point x="211.83" y="644.552"/>
      <point x="271.205" y="707"/>
      <point x="368.667" y="707" type="curve" smooth="yes"/>
      <point x="414" y="707" type="line"/>
      <point x="414" y="606.326" type="line"/>
      <point x="385.994" y="606.326" type="line" smooth="yes"/>
      <point x="333.034" y="606.326"/>
      <point x="312.089" y="586.85"/>
      <point x="304.333" y="536.667" type="curve" smooth="yes"/>
      <point x="287.667" y="428.667" type="line"/>
      <point x="391.667" y="428.667" type="line"/>
      <point x="391.667" y="332.333" type="line"/>
      <point x="273.667" y="332.333" type="line"/>
      <point x="224.667" y="5.333" type="line" smooth="yes"/>
      <point x="207.552" y="-108.849"/>
      <point x="163.223" y="-158.628"/>
      <point x="47.182" y="-158.628" type="curve" smooth="yes"/>
      <point x="10.333" y="-158.628" type="line"/>
    </contour>
  </outline>
</glyph>
<glyph name="Ocenteredtilde" format="2">
  <advance width="617"/>
  <unicode hex="019F"/>
  <outline>
    <contour>
      <point x="151.333" y="405" type="line"/>
      <point x="466.666" y="405" type="line"/>
      <point x="466.666" y="304" type="line"/>
      <point x="151.333" y="304" type="line"/>
    </contour>
    <contour>
      <point x="56.667" y="268.893" type="curve" smooth="yes"/>
      <point x="56.667" y="437.449" type="line" smooth="yes"/>
      <point x="56.667" y="619.167"/>
      <point x="145.01" y="716.667"/>
      <point x="309.667" y="716.667" type="curve" smooth="yes"/>
      <point x="473.4" y="716.667"/>
      <point x="561" y="619.348"/>
      <point x="561" y="437.449" type="curve" smooth="yes"/>
      <point x="561" y="268.893" type="line" smooth="yes"/>
      <point x="561" y="89.431"/>
      <point x="471.518" y="-8"/>
      <point x="306.667" y="-8" type="curve" smooth="yes"/>
      <point x="143.403" y="-8"/>
      <point x="56.667" y="88.065"/>
    </contour>
    <contour>
      <point x="446.667" y="268.887" type="curve" smooth="yes"/>
      <point x="446.667" y="431.802" type="line" smooth="yes"/>
      <point x="446.667" y="552.261"/>
      <point x="399.237" y="614"/>
      <point x="306.837" y="614" type="curve" smooth="yes"/>
      <point x="215.399" y="614"/>
      <point x="171.333" y="554.789"/>
      <point x="171.333" y="431.802" type="curve" smooth="yes"/>
      <point x="171.333" y="268.887" type="line" smooth="yes"/>
      <point x="171.333" y="152.782"/>
      <point x="217.04" y="94.667"/>
      <point x="308.097" y="94.667" type="curve" smooth="yes"/>
      <point x="399.25" y="94.667"/>
      <point x="446.667" y="154.27"/>
    </contour>
  </outline>
</glyph>
<glyph name="Oogonek" format="2">
  <advance width="617"/>
  <unicode hex="01EA"/>
  <outline>
    <component base="O"/>
    <contour>
      <point x="253.667" y="8.667" type="line"/>
      <point x="336.925" y="8.667" type="line"/>
      <point x="229.667" y="-111" type="line"/>
      <point x="253.376" y="-138.356"/>
      <point x="291.194" y="-143.724"/>
      <point x="330" y="-143.667" type="curve"/>
      <point x="330" y="-223.667" type="line"/>
      <point x="244.651" y="-223.463"/>
      <point x="168.265" y="-189.492"/>
      <point x="138.667" y="-104" type="curve"/>
    </contour>
  </outline>
</glyph>
<glyph name="oogonek" format="2">
  <advance width="520"/>
  <unicode hex="01EB"/>
  <outline>
    <component base="o"/>
    <contour>
      <point x="285" y="23.333" type="line"/>
      <point x="368.202" y="23.333" type="line"/>
      <point x="261" y="-96.333" type="line"/>
      <point x="287.21" y="-127.26"/>
      <point x="323.293" y="-129.293"/>
      <point x="361.333" y="-129" type="curve"/>
      <point x="361.333" y="-209" type="line"/>
      <point x="276.702" y="-208.064"/>
      <point x="199.262" y="-174.083"/>
      <point x="170" y="-89.333" type="curve"/>
    </contour>
  </outline>
</glyph>
<glyph name="jcaron" format="2">
  <advance width="241"/>
  <unicode hex="01F0"/>
  <outline>
    <component base="caroncmb" xScale="1" xOffset="120.667"/>
    <contour>
      <point x="-33" y="-64" type="line"/>
      <point x="26.109" y="-64"/>
      <point x="65.667" y="-71.436"/>
      <point x="65.667" y="1.667" type="curve" smooth="yes"/>
      <point x="65.667" y="527.667" type="line"/>
      <point x="172.667" y="527.667" type="line"/>
      <point x="172.667" y="-5" type="line" smooth="yes"/>
      <point x="172.667" y="-101.679"/>
      <point x="121.747" y="-158.667"/>
      <point x="23.333" y="-158.667" type="curve" smooth="yes"/>
      <point x="-33" y="-158.667" type="line"/>
    </contour>
  </outline>
</glyph>
<glyph name="ring" format="2">
  <advance width="512"/>
  <unicode hex="02DA"/>
  <outline>
    <contour>
      <point x="153" y="686" type="curve" smooth="yes"/>
      <point x="153" y="744.224"/>
      <point x="196.124" y="788.667"/>
      <point x="254.667" y="788.667" type="curve" smooth="yes"/>
      <point x="313.755" y="788.667"/>
      <point x="355.667" y="744.549"/>
      <point x="355.667" y="686" type="curve" smooth="yes"/>
      <point x="355.667" y="628.071"/>
      <point x="312.703" y="584.667"/>
      <point x="254.667" y="584.667" type="curve" smooth="yes"/>
      <point x="197.143" y="584.667"/>
      <point x="153" y="628.377"/>
    </contour>
    <contour>
      <point x="304.333" y="686" type="curve" smooth="yes"/>
      <point x="304.333" y="714.292"/>
      <point x="283.58" y="737.667"/>
      <point x="254.667" y="737.667" type="curve" smooth="yes"/>
      <point x="225.029" y="737.667"/>
      <point x="205.667" y="714.763"/>
      <point x="205.667" y="686" type="curve" smooth="yes"/>
      <point x="205.667" y="659.217"/>
      <point x="227.303" y="635"/>
      <point x="254.667" y="635" type="curve" smooth="yes"/>
      <point x="282.278" y="635"/>
      <point x="304.333" y="658.784"/>
    </contour>
  </outline>
</glyph>
<glyph name="acutecomb" format="2">
  <unicode hex="0301"/>
  <anchor x="0" y="527.667" name="_top"/>
  <outline>
    <contour>
      <point x="18.333" y="730" type="line"/>
      <point x="141" y="730" type="line"/>
      <point x="5.333" y="596.667" type="line"/>
      <point x="-89" y="596.667" type="line"/>
    </contour>
  </outline>
</glyph>
<glyph name="brevecmb" format="2">
  <unicode hex="0306"/>
  <anchor x="0" y="527.667" name="_top"/>
  <outline>
    <contour>
      <point x="0" y="569.667" type="curve" smooth="yes"/>
      <point x="-101.28" y="569.667"/>
      <point x="-143.601" y="629.231"/>
      <point x="-143.601" y="721.67" type="curve" smooth="yes"/>
      <point x="-143.601" y="737" type="line"/>
      <point x="-68.982" y="737" type="line"/>
      <point x="-68.986" y="730.69" type="line"/>
      <point x="-68.986" y="682.035"/>
      <point x="-59.944" y="637.667"/>
      <point x="0" y="637.667" type="curve" smooth="yes"/>
      <point x="60.064" y="637.667"/>
      <point x="68.984" y="682.269"/>
      <point x="68.984" y="730.682" type="curve" smooth="yes"/>
      <point x="68.984" y="737" type="line"/>
      <point x="143.667" y="737" type="line"/>
      <point x="143.667" y="721.667" type="line" smooth="yes"/>
      <point x="143.667" y="627.993"/>
      <point x="96.892" y="569.667"/>
    </contour>
  </outline>
</glyph>
<glyph name="dieresiscmb" format="2">
  <unicode hex="0308"/>
  <anchor x="0" y="527.667" name="_top"/>
  <outline>
    <contour>
      <point x="-145" y="706.667" type="line"/>
      <point x="-45.667" y="706.667" type="line"/>
      <point x="-45.667" y="598" type="line"/>
      <point x="-145" y="598" type="line"/>
    </contour>
    <contour>
      <point x="44.667" y="706.667" type="line"/>
      <point x="144" y="706.667" type="line"/>
      <point x="144" y="598" type="line"/>
      <point x="44.667" y="598" type="line"/>
    </contour>
  </outline>
</glyph>
<glyph name="ringcmb" format="2">
  <unicode hex="030A"/>
  <anchor x="0" y="527.667" name="_top"/>
  <outline>
    <contour>
      <point x="-101" y="686" type="curve" smooth="yes"/>
      <point x="-101" y="744.511"/>
      <point x="-59.051" y="788.667"/>
      <point x="0" y="788.667" type="curve" smooth="yes"/>
      <point x="59.089" y="788.667"/>
      <point x="101" y="744.549"/>
      <point x="101" y="686" type="curve" smooth="yes"/>
      <point x="101" y="628.071"/>
      <point x="58.037" y="584.667"/>
      <point x="0" y="584.667" type="curve" smooth="yes"/>
      <point x="-57.999" y="584.667"/>
      <point x="-101" y="628.108"/>
    </contour>
    <contour>
      <point x="49.667" y="686" type="curve" smooth="yes"/>
      <point x="49.667" y="714.292"/>
      <point x="28.913" y="737.667"/>
      <point x="0" y="737.667" type="curve" smooth="yes"/>
      <point x="-29.638" y="737.667"/>
      <point x="-49" y="714.763"/>
      <point x="-49" y="686" type="curve" smooth="yes"/>
      <point x="-49" y="659.217"/>
      <point x="-27.364" y="635"/>
      <point x="0" y="635" type="curve" smooth="yes"/>
      <point x="27.611" y="635"/>
      <point x="49.667" y="658.784"/>
    </contour>
  </outline>
</glyph>
<glyph name="caroncmb" format="2">
  <unicode hex="030C"/>
  <outline>
    <contour>
      <point x="-156" y="733.333" type="line"/>
      <point x="-68.333" y="733.333" type="line"/>
      <point x="0" y="647.667" type="line"/>
      <point x="68" y="733.333" type="line"/>
      <point x="155" y="733.333" type="line"/>
      <point x="40" y="581.667" type="line"/>
      <point x="-41" y="581.667" type="line"/>
    </contour>
  </outline>
</glyph>
<glyph name="dotbelowcomb" format="2">
  <unicode hex="0323"/>
  <outline>
    <contour>
      <point x="-55.667" y="-86" type="line"/>
      <point x="58.333" y="-86" type="line"/>
      <point x="58.333" y="-184.667" type="line"/>
      <point x="-55.667" y="-184.667" type="line"/>
    </contour>
  </outline>
</glyph>
<glyph name="ogonekcmb" format="2">
  <unicode hex="0328"/>
  <outline>
    <contour>
      <point x="-4" y="8.667" type="line"/>
      <point x="72.339" y="8.667" type="line"/>
      <point x="72.339" y="-0.185" type="line"/>
      <point x="-28" y="-111" type="line"/>
      <point x="-3.258" y="-139.155"/>
      <point x="32.262" y="-143.7"/>
      <point x="72.333" y="-143.667" type="curve"/>
      <point x="72.333" y="-223.667" type="line"/>
      <point x="-13.54" y="-223.667"/>
      <point x="-89.126" y="-190.031"/>
      <point x="-119" y="-104" type="curve"/>
    </contour>
  </outline>
</glyph>
<glyph name="alpha" format="2">
  <advance width="644"/>
  <unicode hex="03B1"/>
  <outline>
    <contour>
      <point x="261.333" y="534.667" type="curve" smooth="yes"/>
      <point x="330.396" y="534.667"/>
      <point x="394.656" y="512.778"/>
      <point x="434.667" y="454.333" type="curve"/>
      <point x="477.37" y="495.976"/>
      <point x="520.949" y="513.013"/>
      <point x="581.333" y="513" type="curve"/>
      <point x="581.333" y="421" type="line"/>
      <point x="512.289" y="419.514"/>
      <point x="485" y="371.47"/>
      <point x="485" y="307.333" type="curve" smooth="yes"/>
      <point x="485" y="220.667" type="line" smooth="yes"/>
      <point x="485" y="156.748"/>
      <point x="512.393" y="108.152"/>
      <point x="581.333" y="106.667" type="curve"/>
      <point x="581.333" y="15.667" type="line"/>
      <point x="528.249" y="15.655"/>
      <point x="469.415" y="31.737"/>
      <point x="434.667" y="74.333" type="curve"/>
      <point x="398.202" y="15.285"/>
      <point x="327.583" y="-6"/>
      <point x="261.333" y="-6" type="curve" smooth="yes"/>
      <point x="119.21" y="-6"/>
      <point x="50.667" y="75.44"/>
      <point x="50.667" y="213.667" type="curve" smooth="yes"/>
      <point x="50.667" y="315" type="line" smooth="yes"/>
      <point x="50.667" y="452.307"/>
      <point x="119.981" y="534.667"/>
    </contour>
    <contour>
      <point x="261.333" y="438.333" type="curve" smooth="yes"/>
      <point x="181.936" y="438.333"/>
      <point x="158" y="383.317"/>
      <point x="158" y="312.333" type="curve" smooth="yes"/>
      <point x="158" y="215.667" type="line" smooth="yes"/>
      <point x="158" y="145.015"/>
      <point x="182.099" y="89.333"/>
      <point x="261.333" y="89.333" type="curve" smooth="yes"/>
      <point x="336.896" y="89.333"/>
      <point x="372.333" y="145.181"/>
      <point x="372.333" y="215.667" type="curve" smooth="yes"/>
      <point x="372.333" y="312.333" type="line" smooth="yes"/>
      <point x="372.333" y="383.137"/>
      <point x="337.066" y="438.333"/>
    </contour>
  </outline>
</glyph>
<glyph name="Ljecyr" format="2">
  <advance width="929"/>
  <unicode hex="0409"/>
  <outline>
    <component base="Softcyr" xOffset="346"/>
    <contour>
      <point x="413.333" y="0" type="line"/>
      <point x="413.333" y="707" type="line"/>
      <point x="527.666" y="707" type="line"/>
      <point x="527.666" y="0" type="line"/>
    </contour>
    <contour>
      <point x="149" y="606.667" type="line"/>
      <point x="149" y="707" type="line"/>
      <point x="445" y="707" type="line"/>
      <point x="445" y="606.667" type="line"/>
    </contour>
    <contour>
      <point x="13.9863" y="100.205" type="line"/>
      <point x="49.9333" y="100.28"/>
      <point x="64.4503" y="137.378"/>
      <point x="72.8263" y="249.702" type="curve" smooth="yes"/>
      <point x="107" y="707" type="line"/>
      <point x="221.333" y="707" type="line"/>
      <point x="186.308" y="215.786" type="line" smooth="yes"/>
      <point x="175.472" y="63.143"/>
      <point x="120.591" y="-8"/>
      <point x="13.7333" y="-8" type="curve"/>
    </contour>
  </outline>
</glyph>
<glyph name="Tshecyr" format="2">
  <advance width="637"/>
  <unicode hex="040B"/>
  <outline>
    <contour>
      <point x="458.426" y="606.333" type="line"/>
      <point x="239.333" y="606.333" type="line"/>
      <point x="239.333" y="0" type="line"/>
      <point x="124" y="0" type="line"/>
      <point x="124" y="606.333" type="line"/>
      <point x="6.667" y="606.333" type="line"/>
      <point x="6.667" y="707" type="line"/>
      <point x="458.426" y="707" type="line"/>
    </contour>
    <contour>
      <point x="247.409" y="465.333" type="line"/>
      <point x="285.557" y="504.239"/>
      <point x="344.106" y="524.333"/>
      <point x="396.705" y="524.333" type="curve" smooth="yes"/>
      <point x="520.559" y="524.333"/>
      <point x="580.124" y="444.747"/>
      <point x="580.124" y="335" type="curve" smooth="yes"/>
      <point x="580.124" y="-0.272" type="line"/>
      <point x="472.124" y="-0.272" type="line"/>
      <point x="472.124" y="321.667" type="line" smooth="yes"/>
      <point x="472.124" y="383.292"/>
      <point x="439.494" y="428.333"/>
      <point x="366.374" y="428.333" type="curve" smooth="yes"/>
      <point x="296.234" y="428.333"/>
      <point x="239.457" y="381.659"/>
      <point x="239.457" y="321.667" type="curve"/>
      <point x="203.631" y="321.67" type="line"/>
      <point x="203.647" y="465.488" type="line"/>
    </contour>
  </outline>
</glyph>
<glyph name="Dzhecyr" format="2">
  <advance width="614"/>
  <unicode hex="040F"/>
  <outline>
    <contour>
      <point x="68.2743" y="-0.25" type="line"/>
      <point x="68.2743" y="100.08" type="line"/>
      <point x="546.644" y="100.08" type="line"/>
      <point x="546.644" y="-0.25" type="line"/>
    </contour>
    <contour>
      <point x="250.152" y="-169.881" type="line"/>
      <point x="250.152" y="100.512" type="line"/>
      <point x="364.486" y="100.513" type="line"/>
      <point x="364.486" y="-169.881" type="line"/>
    </contour>
    <contour>
      <point x="432.333" y="0" type="line"/>
      <point x="432.333" y="707" type="line"/>
      <point x="546.666" y="707" type="line"/>
      <point x="546.666" y="0" type="line"/>
    </contour>
    <contour>
      <point x="68.0023" y="0" type="line"/>
      <point x="68.0023" y="707" type="line"/>
      <point x="182.335" y="707" type="line"/>
      <point x="182.335" y="0" type="line"/>
    </contour>
  </outline>
</glyph>
<glyph name="Becyr" format="2">
  <advance width="630"/>
  <unicode hex="0411"/>
  <outline>
    <contour>
      <point x="160" y="0" type="line"/>
      <point x="160" y="100.333" type="line"/>
      <point x="329" y="100.333" type="line" smooth="yes"/>
      <point x="399" y="100.333"/>
      <point x="442.333" y="145"/>
      <point x="442.333" y="216.667" type="curve" smooth="yes"/>
      <point x="442.333" y="287"/>
      <point x="400" y="329.667"/>
      <point x="329.333" y="329.667" type="curve" smooth="yes"/>
      <point x="160" y="329.667" type="line"/>
      <point x="160" y="430" type="line"/>
      <point x="340.667" y="430" type="line" smooth="yes"/>
      <point x="475.667" y="430"/>
      <point x="556.667" y="351.333"/>
      <point x="556.667" y="221.667" type="curve" smooth="yes"/>
      <point x="556.667" y="88.333"/>
      <point x="470.333" y="0"/>
      <point x="340.667" y="0" type="curve" smooth="yes"/>
    </contour>
    <contour>
      <point x="167.333" y="606.667" type="line"/>
      <point x="167.333" y="707" type="line"/>
      <point x="508.667" y="707" type="line"/>
      <point x="508.667" y="606.667" type="line"/>
    </contour>
    <contour>
      <point x="67.333" y="0" type="line"/>
      <point x="67.333" y="707" type="line"/>
      <point x="181.667" y="707" type="line"/>
      <point x="181.667" y="0" type="line"/>
    </contour>
  </outline>
</glyph>
<glyph name="Gecyr" format="2">
  <advance width="537"/>
  <unicode hex="0413"/>
  <anchor x="282.333" y="707" name="top"/>
  <outline>
    <contour>
      <point x="67.333" y="0" type="line"/>
      <point x="67.333" y="707" type="line"/>
      <point x="181.667" y="707" type="line"/>
      <point x="181.667" y="0" type="line"/>
    </contour>
    <contour>
      <point x="167.333" y="606.667" type="line"/>
      <point x="167.333" y="707" type="line"/>
      <point x="456" y="707" type="line"/>
      <point x="456" y="606.667" type="line"/>
    </contour>
  </outline>
</glyph>
<glyph name="Icyr" format="2">
  <advance width="659"/>
  <unicode hex="0418"/>
  <anchor x="322.333" y="707" name="top"/>
  <outline>
    <contour>
      <point x="67.333" y="707" type="line"/>
      <point x="181.667" y="707" type="line"/>
      <point x="181.667" y="314.145" type="line" smooth="yes"/>
      <point x="181.667" y="272.86"/>
      <point x="179.081" y="232.956"/>
      <point x="171.01" y="193.048" type="curve"/>
      <point x="175.01" y="193.113" type="line"/>
      <point x="184.306" y="213.775"/>
      <point x="196.278" y="235.379"/>
      <point x="209.103" y="257.059" type="curve" smooth="yes"/>
      <point x="476.667" y="707" type="line"/>
      <point x="591.667" y="707" type="line"/>
      <point x="591.667" y="0" type="line"/>
      <point x="476.667" y="0" type="line"/>
      <point x="476.667" y="394.928" type="line" smooth="yes"/>
      <point x="476.667" y="435.073"/>
      <point x="477.812" y="471.472"/>
      <point x="484.686" y="512.641" type="curve"/>
      <point x="480.743" y="512.641" type="line"/>
      <point x="472.836" y="492.505"/>
      <point x="461.814" y="470.154"/>
      <point x="448.906" y="448.498" type="curve" smooth="yes"/>
      <point x="181.667" y="0" type="line"/>
      <point x="67.333" y="0" type="line"/>
    </contour>
  </outline>
</glyph>
<glyph name="Checyr" format="2">
  <advance width="635"/>
  <unicode hex="0427"/>
  <outline>
    <contour>
      <point x="67.333" y="465.17" type="curve" smooth="yes"/>
      <point x="67.333" y="707" type="line"/>
      <point x="182.667" y="707" type="line"/>
      <point x="182.667" y="470.837" type="line" smooth="yes"/>
      <point x="182.667" y="385.597"/>
      <point x="231.698" y="327.17"/>
      <point x="317.333" y="327.17" type="curve" smooth="yes"/>
      <point x="381.906" y="327.17"/>
      <point x="425.388" y="338.886"/>
      <point x="453.667" y="364.585" type="curve"/>
      <point x="502.732" y="364.723" type="line"/>
      <point x="502.732" y="283.508" type="line"/>
      <point x="455.564" y="243.896"/>
      <point x="400.419" y="227.17"/>
      <point x="317.333" y="227.17" type="curve" smooth="yes"/>
      <point x="166.155" y="227.17"/>
      <point x="67.333" y="321.251"/>
    </contour>
    <contour>
      <point x="453.667" y="707" type="line"/>
      <point x="568" y="707" type="line"/>
      <point x="568" y="0" type="line"/>
      <point x="453.667" y="0" type="line"/>
    </contour>
  </outline>
</glyph>
<glyph name="Shchacyr" format="2">
  <advance width="862"/>
  <unicode hex="0429"/>
  <outline>
    <contour>
      <point x="68.275" y="-0.25" type="line"/>
      <point x="68.275" y="100.08" type="line"/>
      <point x="833.087" y="100.08" type="line"/>
      <point x="833.087" y="-0.25" type="line"/>
    </contour>
    <contour>
      <point x="655.667" y="0" type="line"/>
      <point x="655.667" y="707" type="line"/>
      <point x="770" y="707" type="line"/>
      <point x="770" y="0" type="line"/>
    </contour>
    <contour>
      <point x="68.0023" y="0" type="line"/>
      <point x="68.0023" y="707" type="line"/>
      <point x="182.335" y="707" type="line"/>
      <point x="182.335" y="0" type="line"/>
    </contour>
    <contour>
      <point x="361.301" y="0" type="line"/>
      <point x="361.301" y="707" type="line"/>
      <point x="475.634" y="707" type="line"/>
      <point x="475.634" y="0" type="line"/>
    </contour>
    <contour>
      <point x="736.819" y="-169.881" type="line"/>
      <point x="736.819" y="100.512" type="line"/>
      <point x="851.153" y="100.513" type="line"/>
      <point x="851.153" y="-169.881" type="line"/>
    </contour>
  </outline>
</glyph>
<glyph name="Hardcyr" format="2">
  <advance width="679"/>
  <unicode hex="042A"/>
  <outline>
    <component base="Softcyr" xOffset="96"/>
    <contour>
      <point x="-0.000333333" y="606.667" type="line"/>
      <point x="-0.000333333" y="707" type="line"/>
      <point x="262" y="707" type="line"/>
      <point x="262" y="606.667" type="line"/>
    </contour>
  </outline>
</glyph>
<glyph name="becyr" format="2">
  <advance width="525"/>
  <unicode hex="0431"/>
  <anchor x="268" y="707" name="top"/>
  <outline>
    <contour>
      <point x="62.333" y="233.924" type="curve" smooth="yes"/>
      <point x="62.333" y="443.399" type="line" smooth="yes"/>
      <point x="62.333" y="526.745"/>
      <point x="92.919" y="608.31"/>
      <point x="170.932" y="645.14" type="curve" smooth="yes"/>
      <point x="237.653" y="676.5"/>
      <point x="344.026" y="676.618"/>
      <point x="403.194" y="707" type="curve"/>
      <point x="403.194" y="591.085" type="line"/>
      <point x="336.999" y="567.772"/>
      <point x="270.16" y="575.228"/>
      <point x="227.132" y="554.648" type="curve" smooth="yes"/>
      <point x="187.482" y="535.716"/>
      <point x="170" y="492.687"/>
      <point x="170" y="450.786" type="curve" smooth="yes"/>
      <point x="170" y="427.653" type="line"/>
      <point x="199.082" y="472.599"/>
      <point x="243.388" y="494.667"/>
      <point x="296.595" y="494.667" type="curve" smooth="yes"/>
      <point x="426.079" y="494.667"/>
      <point x="474.667" y="392.833"/>
      <point x="474.667" y="277.21" type="curve" smooth="yes"/>
      <point x="474.667" y="211.79" type="line" smooth="yes"/>
      <point x="474.667" y="98.827"/>
      <point x="397.878" y="-6"/>
      <point x="270.36" y="-6" type="curve" smooth="yes"/>
      <point x="122.735" y="-6"/>
      <point x="62.333" y="84.397"/>
    </contour>
    <contour>
      <point x="366.667" y="215.794" type="curve" smooth="yes"/>
      <point x="366.667" y="272.541" type="line" smooth="yes"/>
      <point x="366.667" y="337.344"/>
      <point x="346.42" y="398.667"/>
      <point x="270.778" y="398.667" type="curve" smooth="yes"/>
      <point x="196.539" y="398.667"/>
      <point x="169.333" y="335.698"/>
      <point x="169.333" y="270.536" type="curve" smooth="yes"/>
      <point x="169.333" y="216.128" type="line" smooth="yes"/>
      <point x="169.333" y="149.317"/>
      <point x="198.959" y="89.333"/>
      <point x="273.631" y="89.333" type="curve" smooth="yes"/>
      <point x="348.372" y="89.333"/>
      <point x="366.667" y="152.837"/>
    </contour>
  </outline>
</glyph>
<glyph name="gecyr" format="2">
  <advance width="443"/>
  <unicode hex="0433"/>
  <anchor x="227.667" y="527.667" name="top"/>
  <outline>
    <component base="dotlessi"/>
    <contour>
      <point x="68.333" y="452.333" type="line"/>
      <point x="68.333" y="527.667" type="line"/>
      <point x="389.161" y="527.667" type="line"/>
      <point x="389.161" y="452.333" type="line"/>
    </contour>
  </outline>
</glyph>
<glyph name="icyr" format="2">
  <advance width="565"/>
  <unicode hex="0438"/>
  <anchor x="278" y="527.667" name="top"/>
  <outline>
    <contour>
      <point x="411.667" y="527.667" type="curve"/>
      <point x="502.334" y="527.667" type="line"/>
      <point x="502.334" y="0" type="line"/>
      <point x="395.001" y="0" type="line"/>
      <point x="395.001" y="314.645" type="line" smooth="yes"/>
      <point x="395.001" y="371.843"/>
      <point x="404.79" y="468.61"/>
    </contour>
    <contour>
      <point x="62.333" y="527.667" type="line"/>
      <point x="169.667" y="527.667" type="line"/>
      <point x="169.667" y="213.666" type="line" smooth="yes"/>
      <point x="169.667" y="156.256"/>
      <point x="159.212" y="57.934"/>
      <point x="153" y="0" type="curve"/>
      <point x="62.333" y="0" type="line"/>
    </contour>
    <contour>
      <point x="179.667" y="0" type="line"/>
      <point x="151.434" y="-0.159" type="line"/>
      <point x="151.434" y="150.64" type="line"/>
      <point x="169.667" y="150.667" type="line"/>
      <point x="179.977" y="173.268"/>
      <point x="190.175" y="193.266"/>
      <point x="201.892" y="213.363" type="curve" smooth="yes"/>
      <point x="384.992" y="527.743" type="line"/>
      <point x="413.553" y="527.677" type="line"/>
      <point x="413.553" y="377.586" type="line"/>
      <point x="394.992" y="377.742" type="line"/>
      <point x="384.917" y="352.95"/>
      <point x="375.519" y="336.852"/>
      <point x="362.503" y="314.472" type="curve" smooth="yes"/>
    </contour>
  </outline>
</glyph>
<glyph name="kacyr" format="2">
  <advance width="523"/>
  <unicode hex="043A"/>
  <anchor x="248.667" y="527.667" name="top"/>
  <outline>
    <contour>
      <point x="170" y="527.667" type="line"/>
      <point x="170" y="0" type="line"/>
      <point x="62.333" y="0" type="line"/>
      <point x="62.333" y="527.667" type="line"/>
    </contour>
    <contour>
      <point x="224.368" y="254.367" type="line"/>
      <point x="321.932" y="309.728" type="line"/>
      <point x="507.333" y="0" type="line"/>
      <point x="377" y="0" type="line"/>
    </contour>
    <contour>
      <point x="160.22" y="258.687" type="line"/>
      <point x="160.22" y="304.801" type="line"/>
      <point x="206.539" y="304.766" type="line"/>
      <point x="352.516" y="527.667" type="line"/>
      <point x="481.182" y="527.667" type="line"/>
      <point x="289.27" y="258.682" type="line"/>
    </contour>
    <contour>
      <point x="130" y="246" type="line"/>
      <point x="130" y="321.333" type="line"/>
      <point x="299.446" y="321.333" type="line"/>
      <point x="299.446" y="246" type="line"/>
    </contour>
  </outline>
</glyph>
<glyph name="efcyr" format="2">
  <advance width="819"/>
  <unicode hex="0444"/>
  <anchor x="559.5" y="527.667" name="top"/>
  <outline>
    <contour>
      <point x="226.833" y="-6" type="curve" smooth="yes"/>
      <point x="98.527" y="-6"/>
      <point x="51.167" y="98.203"/>
      <point x="51.167" y="211.667" type="curve" smooth="yes"/>
      <point x="51.167" y="317" type="line" smooth="yes"/>
      <point x="51.167" y="433.85"/>
      <point x="100.827" y="534.333"/>
      <point x="231.167" y="534.333" type="curve" smooth="yes"/>
      <point x="283.7" y="534.333"/>
      <point x="328.42" y="510.72"/>
      <point x="357.833" y="467.333" type="curve"/>
      <point x="358.04" y="706.997" type="line"/>
      <point x="461.827" y="706.997" type="line"/>
      <point x="462" y="467.333" type="line"/>
      <point x="491.403" y="510.72"/>
      <point x="536.12" y="534.333"/>
      <point x="588.667" y="534.333" type="curve" smooth="yes"/>
      <point x="718.997" y="534.333"/>
      <point x="768.667" y="433.85"/>
      <point x="768.667" y="317" type="curve" smooth="yes"/>
      <point x="768.667" y="211.667" type="line" smooth="yes"/>
      <point x="768.667" y="98.203"/>
      <point x="721.297" y="-6"/>
      <point x="593" y="-6" type="curve" smooth="yes"/>
      <point x="541.28" y="-6"/>
      <point x="494.6" y="11.993"/>
      <point x="464" y="55" type="curve"/>
      <point x="464" y="-158.667" type="line"/>
      <point x="355.833" y="-158.667" type="line"/>
      <point x="355.833" y="55" type="line"/>
      <point x="325.223" y="11.993"/>
      <point x="278.543" y="-6"/>
    </contour>
    <contour>
      <point x="567.49" y="89.333" type="curve" smooth="yes"/>
      <point x="642.807" y="89.333"/>
      <point x="660.823" y="152.37"/>
      <point x="660.823" y="215.667" type="curve" smooth="yes"/>
      <point x="660.823" y="312" type="line" smooth="yes"/>
      <point x="660.823" y="377.487"/>
      <point x="640.687" y="438.333"/>
      <point x="564.157" y="438.333" type="curve" smooth="yes"/>
      <point x="490.03" y="438.333"/>
      <point x="463.49" y="375.003"/>
      <point x="463.49" y="310.333" type="curve" smooth="yes"/>
      <point x="463.49" y="216" type="line" smooth="yes"/>
      <point x="463.49" y="149.37"/>
      <point x="492.843" y="89.333"/>
    </contour>
    <contour>
      <point x="253.16" y="89.333" type="curve" smooth="yes"/>
      <point x="326.473" y="89.333"/>
      <point x="357.08" y="147.195"/>
      <point x="357.08" y="212.43" type="curve" smooth="yes"/>
      <point x="357.08" y="314.29" type="line" smooth="yes"/>
      <point x="357.08" y="377.524"/>
      <point x="329.1" y="438.333"/>
      <point x="256.493" y="438.333" type="curve" smooth="yes"/>
      <point x="179.957" y="438.333"/>
      <point x="159.827" y="377.487"/>
      <point x="159.827" y="312" type="curve" smooth="yes"/>
      <point x="159.827" y="215.667" type="line" smooth="yes"/>
      <point x="159.827" y="152.37"/>
      <point x="177.837" y="89.333"/>
    </contour>
  </outline>
</glyph>
<glyph name="checyr" format="2">
  <advance width="533"/>
  <unicode hex="0447"/>
  <outline>
    <contour>
      <point x="374.035" y="258.317" type="line"/>
      <point x="374.188" y="173.112" type="line"/>
      <point x="342.723" y="154.257"/>
      <point x="290.232" y="140"/>
      <point x="234" y="140" type="curve" smooth="yes"/>
      <point x="118.971" y="140"/>
      <point x="62" y="220.545"/>
      <point x="62" y="329.333" type="curve" smooth="yes"/>
      <point x="62" y="527.667" type="line"/>
      <point x="170" y="527.667" type="line"/>
      <point x="170" y="342.667" type="line" smooth="yes"/>
      <point x="170" y="282.565"/>
      <point x="201.18" y="236"/>
      <point x="265.333" y="236" type="curve" smooth="yes"/>
      <point x="315.266" y="236"/>
      <point x="342.443" y="244.383"/>
      <point x="362.667" y="257.709" type="curve"/>
    </contour>
    <contour>
      <point x="362.667" y="0" type="line"/>
      <point x="362.667" y="527.667" type="line"/>
      <point x="470.333" y="527.667" type="line"/>
      <point x="470.333" y="0" type="line"/>
    </contour>
  </outline>
</glyph>
<glyph name="tshecyr" format="2">
  <advance width="533"/>
  <unicode hex="045B"/>
  <anchor x="115.667" y="707" name="top"/>
  <outline>
    <contour>
      <point x="62.333" y="707" type="line"/>
      <point x="170" y="707" type="line"/>
      <point x="170" y="475.333" type="line"/>
      <point x="201.21" y="514.239"/>
      <point x="249.22" y="534.333"/>
      <point x="298.667" y="534.333" type="curve" smooth="yes"/>
      <point x="414.764" y="534.333"/>
      <point x="470.667" y="454.747"/>
      <point x="470.667" y="345" type="curve" smooth="yes"/>
      <point x="470.667" y="0" type="line"/>
      <point x="362.667" y="0" type="line"/>
      <point x="362.667" y="331.667" type="line" smooth="yes"/>
      <point x="362.667" y="393.292"/>
      <point x="333.204" y="438.333"/>
      <point x="267.333" y="438.333" type="curve" smooth="yes"/>
      <point x="204.094" y="438.333"/>
      <point x="170" y="391.659"/>
      <point x="170" y="331.667" type="curve" smooth="yes"/>
      <point x="170" y="0" type="line"/>
      <point x="62.333" y="0" type="line"/>
    </contour>
    <contour>
      <point x="0" y="660.264" type="line"/>
      <point x="280.667" y="660.264" type="line"/>
      <point x="280.667" y="563.598" type="line"/>
      <point x="0" y="563.598" type="line"/>
    </contour>
  </outline>
</glyph>
<glyph name="dzhecyr" format="2">
  <advance width="535"/>
  <unicode hex="045F"/>
  <outline>
    <component base="dotlessi" xOffset="-6"/>
    <component base="dotlessi" xOffset="297.001"/>
    <contour>
      <point x="108.667" y="0" type="line"/>
      <point x="108.667" y="75.333" type="line"/>
      <point x="429.495" y="75.333" type="line"/>
      <point x="429.495" y="0" type="line"/>
    </contour>
    <contour>
      <point x="214.187" y="-170.06" type="line"/>
      <point x="214.187" y="75.3333" type="line"/>
      <point x="323.187" y="75.3333" type="line"/>
      <point x="323.187" y="-170.06" type="line"/>
    </contour>
  </outline>
</glyph>
<glyph name="quotesinglbase" format="2">
  <advance width="190"/>
  <unicode hex="201A"/>
  <outline>
    <contour>
      <point x="44" y="125" type="line"/>
      <point x="146.667" y="125" type="line"/>
      <point x="146.667" y="-69" type="line"/>
      <point x="44" y="-157.333" type="line"/>
    </contour>
  </outline>
</glyph>
<glyph name="quotedblleft" format="2">
  <advance width="366"/>
  <unicode hex="201C"/>
  <outline>
    <contour>
      <point x="146.333" y="464.333" type="line"/>
      <point x="43.667" y="464.333" type="line"/>
      <point x="43.667" y="658.333" type="line"/>
      <point x="146.333" y="747.333" type="line"/>
    </contour>
    <contour>
      <point x="322.333" y="464.333" type="line"/>
      <point x="220" y="464.333" type="line"/>
      <point x="220" y="658.333" type="line"/>
      <point x="322.333" y="747.333" type="line"/>
    </contour>
  </outline>
</glyph>
<glyph name="bullet" format="2">
  <advance width="469"/>
  <unicode hex="2022"/>
  <outline>
    <contour>
      <point x="94" y="315" type="curve" smooth="yes"/>
      <point x="94" y="397.933"/>
      <point x="151.715" y="456.667"/>
      <point x="235" y="456.667" type="curve" smooth="yes"/>
      <point x="317.952" y="456.667"/>
      <point x="376.333" y="397.702"/>
      <point x="376.333" y="315" type="curve" smooth="yes"/>
      <point x="376.333" y="232.933"/>
      <point x="316.955" y="174"/>
      <point x="235" y="174" type="curve" smooth="yes"/>
      <point x="152.718" y="174"/>
      <point x="94" y="232.696"/>
    </contour>
  </outline>
</glyph>
<glyph name="guilsinglleft" format="2">
  <advance width="304"/>
  <unicode hex="2039"/>
  <outline>
    <contour>
      <point x="20.667" y="270" type="line"/>
      <point x="241.667" y="493" type="line"/>
      <point x="241.667" y="375.333" type="line"/>
      <point x="138.667" y="270" type="line"/>
      <point x="241.667" y="165.667" type="line"/>
      <point x="241.667" y="48" type="line"/>
    </contour>
  </outline>
</glyph>
<glyph name="Euro" format="2">
  <advance width="560"/>
  <unicode hex="20AC"/>
  <outline>
    <contour>
      <point x="88.667" y="251.667" type="line"/>
      <point x="31.667" y="251.667" type="line"/>
      <point x="31.667" y="326.333" type="line"/>
      <point x="88.667" y="326.333" type="line"/>
      <point x="88.667" y="385" type="line"/>
      <point x="31.667" y="385" type="line"/>
      <point x="31.667" y="459.667" type="line"/>
      <point x="88.667" y="459.667" type="line"/>
      <point x="88.667" y="488" type="line" smooth="yes"/>
      <point x="88.667" y="623.183"/>
      <point x="152.611" y="717"/>
      <point x="301" y="717" type="curve" smooth="yes"/>
      <point x="413.015" y="717"/>
      <point x="492.691" y="655.658"/>
      <point x="501" y="540.667" type="curve"/>
      <point x="402.333" y="540.667" type="line"/>
      <point x="391.528" y="595.873"/>
      <point x="357.683" y="621.667"/>
      <point x="302" y="621.667" type="curve" smooth="yes"/>
      <point x="234.299" y="621.667"/>
      <point x="196.711" y="585.062"/>
      <point x="196.909" y="488.001" type="curve"/>
      <point x="197" y="459.667" type="line"/>
      <point x="399.667" y="459.667" type="line"/>
      <point x="386" y="385" type="line"/>
      <point x="197" y="385" type="line"/>
      <point x="197" y="326.333" type="line"/>
      <point x="376.333" y="326.333" type="line"/>
      <point x="363.667" y="251.667" type="line"/>
      <point x="197" y="251.667" type="line"/>
      <point x="197" y="218.333" type="line" smooth="yes"/>
      <point x="197" y="146.657"/>
      <point x="221.234" y="83.667"/>
      <point x="303.333" y="83.667" type="curve" smooth="yes"/>
      <point x="359.428" y="83.667"/>
      <point x="394.15" y="110.768"/>
      <point x="405" y="166.333" type="curve"/>
      <point x="503" y="166.333" type="line"/>
      <point x="492.936" y="49.909"/>
      <point x="414.47" y="-10.667"/>
      <point x="300.333" y="-10.667" type="curve" smooth="yes"/>
      <point x="147.46" y="-10.667"/>
      <point x="89.936" y="87.743"/>
      <point x="88.789" y="225.023" type="curve" smooth="yes"/>
    </contour>
  </outline>
</glyph>
<glyph name="Decyr.loclBGR" format="2">
  <advance width="645"/>
  <outline>
    <component base="V" xScale="-1" yScale="-1" xOffset="596.333" yOffset="707"/>
    <contour>
      <point x="58.941" y="-0.25" type="line"/>
      <point x="58.941" y="100.08" type="line"/>
      <point x="507.839" y="100.08" type="line"/>
      <point x="507.839" y="-0.25" type="line"/>
    </contour>
    <contour>
      <point x="20.749" y="-169.881" type="line"/>
      <point x="20.749" y="100.296" type="line"/>
      <point x="135.082" y="100.296" type="line"/>
      <point x="135.082" y="-169.881" type="line"/>
    </contour>
    <contour>
      <point x="494.153" y="-169.881" type="line"/>
      <point x="494.153" y="100.512" type="line"/>
      <point x="608.486" y="100.513" type="line"/>
      <point x="608.486" y="-169.881" type="line"/>
    </contour>
  </outline>
</glyph>
<glyph name="five.tosf" format="2">
  <advance width="524"/>
  <outline>
    <contour>
      <point x="68.667" y="13.667" type="curve"/>
      <point x="174.333" y="13.667" type="line"/>
      <point x="174.115" y="-42.66"/>
      <point x="205.026" y="-73.667"/>
      <point x="261.333" y="-73.667" type="curve" smooth="yes"/>
      <point x="341.187" y="-73.667"/>
      <point x="348.632" y="-8.31"/>
      <point x="348.632" y="55.27" type="curve" smooth="yes"/>
      <point x="348.632" y="122.272"/>
      <point x="347.366" y="201"/>
      <point x="261" y="201" type="curve" smooth="yes"/>
      <point x="222.061" y="201"/>
      <point x="192.319" y="181.354"/>
      <point x="178" y="145" type="curve"/>
      <point x="79" y="145" type="line"/>
      <point x="79" y="537.667" type="line"/>
      <point x="446.333" y="537.667" type="line"/>
      <point x="446.333" y="438" type="line"/>
      <point x="179" y="438" type="line"/>
      <point x="179" y="261.667" type="line"/>
      <point x="206.599" y="287.028"/>
      <point x="245.884" y="299"/>
      <point x="283" y="299" type="curve" smooth="yes"/>
      <point x="418.691" y="299"/>
      <point x="459.966" y="204.872"/>
      <point x="459.966" y="86.828" type="curve" smooth="yes"/>
      <point x="459.966" y="30.667" type="line" smooth="yes"/>
      <point x="459.966" y="-94.56"/>
      <point x="388.253" y="-171.333"/>
      <point x="261.667" y="-171.333" type="curve" smooth="yes"/>
      <point x="139.805" y="-171.333"/>
      <point x="68.563" y="-111.397"/>
    </contour>
  </outline>
</glyph>
<glyph name="four.numr" format="2">
  <advance width="350"/>
  <outline>
    <contour>
      <point x="322.667" y="342.667" type="line"/>
      <point x="290.667" y="342.667" type="line"/>
      <point x="290.667" y="278.667" type="line"/>
      <point x="197.333" y="278.667" type="line"/>
      <point x="197.333" y="342.667" type="line"/>
      <point x="33" y="342.667" type="line"/>
      <point x="33" y="423.667" type="line"/>
      <point x="151" y="707" type="line"/>
      <point x="244.667" y="707" type="line"/>
      <point x="126.667" y="423.667" type="line"/>
      <point x="197.333" y="423.667" type="line"/>
      <point x="197.333" y="517" type="line"/>
      <point x="290.667" y="517" type="line"/>
      <point x="290.667" y="423.667" type="line"/>
      <point x="322.667" y="423.667" type="line"/>
    </contour>
  </outline>
</glyph>
<glyph name="four.sups" format="2">
  <advance width="350"/>
  <outline>
    <contour>
      <point x="322.667" y="505" type="line"/>
      <point x="290.667" y="505" type="line"/>
      <point x="290.667" y="440" type="line"/>
      <point x="197.333" y="440" type="line"/>
      <point x="197.333" y="505" type="line"/>
      <point x="33" y="505" type="line"/>
      <point x="33" y="586" type="line"/>
      <point x="151" y="868.333" type="line"/>
      <point x="244.667" y="868.333" type="line"/>
      <point x="126.667" y="586" type="line"/>
      <point x="197.333" y="586" type="line"/>
      <point x="197.333" y="679.333" type="line"/>
      <point x="290.667" y="679.333" type="line"/>
      <point x="290.667" y="586" type="line"/>
      <point x="322.667" y="586" type="line"/>
    </contour>
  </outline>
</glyph>
<glyph name="four.tosf" format="2">
  <advance width="524"/>
  <outline>
    <contour>
      <point x="498.667" y="0" type="line"/>
      <point x="434.333" y="0" type="line"/>
      <point x="434.333" y="-160" type="line"/>
      <point x="320" y="-160" type="line"/>
      <point x="320" y="0" type="line"/>
      <point x="51.667" y="0" type="line"/>
      <point x="51.667" y="100.667" type="line"/>
      <point x="253" y="538.333" type="line"/>
      <point x="367.333" y="538.333" type="line"/>
      <point x="166" y="100.667" type="line"/>
      <point x="320" y="100.667" type="line"/>
      <point x="320" y="264" type="line"/>
      <point x="434.333" y="264" type="line"/>
      <point x="434.333" y="100.667" type="line"/>
      <point x="498.667" y="100.667" type="line"/>
    </contour>
  </outline>
</glyph>
<glyph name="kacyr.loclBGR" format="2">
  <advance width="523"/>
  <anchor x="115.667" y="707" name="top"/>
  <outline>
    <contour>
      <point x="170" y="707" type="line"/>
      <point x="170" y="0" type="line"/>
      <point x="62.333" y="0" type="line"/>
      <point x="62.333" y="707" type="line"/>
    </contour>
    <contour>
      <point x="160.22" y="258.687" type="line"/>
      <point x="160.22" y="304.801" type="line"/>
      <point x="206.539" y="304.766" type="line"/>
      <point x="383.774" y="527.667" type="line"/>
      <point x="512.441" y="527.667" type="line"/>
      <point x="289.27" y="258.682" type="line"/>
    </contour>
    <contour>
      <point x="224.368" y="254.367" type="line"/>
      <point x="321.932" y="309.728" type="line"/>
      <point x="507.333" y="0" type="line"/>
      <point x="377" y="0" type="line"/>
    </contour>
    <contour>
      <point x="130" y="246" type="line"/>
      <point x="130" y="321.333" type="line"/>
      <point x="299.446" y="321.333" type="line"/>
      <point x="299.446" y="246" type="line"/>
    </contour>
  </outline>
</glyph>
<glyph name="seven.osf" format="2">
  <advance width="458"/>
  <outline>
    <contour>
      <point x="418" y="537.666" type="line"/>
      <point x="418" y="437" type="line"/>
      <point x="198" y="-160.667" type="line"/>
      <point x="83.0003" y="-160.667" type="line"/>
      <point x="307" y="437" type="line"/>
      <point x="27.6663" y="437" type="line"/>
      <point x="27.6663" y="537.666" type="line"/>
    </contour>
  </outline>
</glyph>
<glyph name="shchacyr.loclBGR" format="2">
  <advance width="854"/>
  <outline>
    <component base="m" xScale="-1" xyScale="5.99888e-17" yScale="-1" xOffset="833" yOffset="527.667"/>
    <contour>
      <point x="734.532" y="-169.881" type="line"/>
      <point x="734.532" y="75.512" type="line"/>
      <point x="843.532" y="75.512" type="line"/>
      <point x="843.532" y="-169.881" type="line"/>
    </contour>
  </outline>
</glyph>
<glyph name="t_t" format="2">
  <advance width="673"/>
  <outline>
    <contour>
      <point x="528.667" y="450" type="line"/>
      <point x="528.667" y="152" type="line" smooth="yes"/>
      <point x="528.667" y="85.554"/>
      <point x="576.169" y="92.333"/>
      <point x="626.333" y="92.333" type="curve"/>
      <point x="626.333" y="0" type="line"/>
      <point x="569" y="0" type="line" smooth="yes"/>
      <point x="478.439" y="0"/>
      <point x="421.667" y="54.125"/>
      <point x="421.667" y="145.667" type="curve" smooth="yes"/>
      <point x="421.667" y="450" type="line"/>
      <point x="212" y="450" type="line"/>
      <point x="212" y="152" type="line" smooth="yes"/>
      <point x="212" y="86.067"/>
      <point x="259.647" y="92.333"/>
      <point x="309.333" y="92.333" type="curve"/>
      <point x="309.333" y="0" type="line"/>
      <point x="252" y="0" type="line" smooth="yes"/>
      <point x="161.439" y="0"/>
      <point x="104.667" y="54.125"/>
      <point x="104.667" y="145.667" type="curve" smooth="yes"/>
      <point x="104.667" y="450" type="line"/>
      <point x="29" y="450" type="line"/>
      <point x="29" y="527.667" type="line"/>
      <point x="104.667" y="527.667" type="line"/>
      <point x="104.667" y="637.333" type="line"/>
      <point x="212" y="677.667" type="line"/>
      <point x="212" y="527.667" type="line"/>
      <point x="421.667" y="527.667" type="line"/>
      <point x="421.667" y="637.333" type="line"/>
      <point x="528.667" y="677.667" type="line"/>
      <point x="528.667" y="527.667" type="line"/>
      <point x="636" y="527.667" type="line"/>
      <point x="636" y="450" type="line"/>
    </contour>
  </outline>
</glyph>
<glyph name="three.dnom" format="2">
  <advance width="341"/>
  <outline>
    <contour>
      <point x="38.667" y="121" type="curve"/>
      <point x="122.333" y="121" type="line"/>
      <point x="122.333" y="88.88"/>
      <point x="131.136" y="70"/>
      <point x="167" y="70" type="curve" smooth="yes"/>
      <point x="203.862" y="70"/>
      <point x="210.333" y="98.834"/>
      <point x="210.333" y="129" type="curve" smooth="yes"/>
      <point x="210.333" y="179.081"/>
      <point x="178.915" y="181.667"/>
      <point x="138.333" y="181.667" type="curve"/>
      <point x="138.333" y="258.667" type="line"/>
      <point x="182.856" y="258.667"/>
      <point x="203.333" y="261.982"/>
      <point x="203.333" y="312.667" type="curve" smooth="yes"/>
      <point x="203.333" y="337.719"/>
      <point x="191.964" y="357.667"/>
      <point x="164.667" y="357.667" type="curve" smooth="yes"/>
      <point x="129.879" y="357.667"/>
      <point x="124" y="337.456"/>
      <point x="124" y="307.667" type="curve"/>
      <point x="40.667" y="307.667" type="line"/>
      <point x="40.667" y="318.333" type="line" smooth="yes"/>
      <point x="40.667" y="395.821"/>
      <point x="94.28" y="435.333"/>
      <point x="168" y="435.333" type="curve" smooth="yes"/>
      <point x="248.64" y="435.333"/>
      <point x="293.333" y="391.715"/>
      <point x="293.333" y="311.333" type="curve" smooth="yes"/>
      <point x="293.333" y="275.076"/>
      <point x="276.214" y="244.941"/>
      <point x="244.333" y="227.333" type="curve"/>
      <point x="290.842" y="208.414"/>
      <point x="300" y="163.904"/>
      <point x="300" y="118.667" type="curve" smooth="yes"/>
      <point x="300" y="41.957"/>
      <point x="244.267" y="-6.667"/>
      <point x="169.333" y="-6.667" type="curve" smooth="yes"/>
      <point x="81.014" y="-6.667"/>
      <point x="38.667" y="32.927"/>
    </contour>
  </outline>
</glyph>
<glyph name="three.sups" format="2">
  <advance width="341"/>
  <outline>
    <contour>
      <point x="38.667" y="561" type="curve"/>
      <point x="122.333" y="561" type="line"/>
      <point x="122.333" y="528.941"/>
      <point x="131.159" y="510"/>
      <point x="167" y="510" type="curve" smooth="yes"/>
      <point x="203.919" y="510"/>
      <point x="210.333" y="538.881"/>
      <point x="210.333" y="569" type="curve" smooth="yes"/>
      <point x="210.333" y="619.081"/>
      <point x="178.915" y="621.667"/>
      <point x="138.333" y="621.667" type="curve"/>
      <point x="138.333" y="698.667" type="line"/>
      <point x="183.326" y="698.667"/>
      <point x="203.333" y="703.253"/>
      <point x="203.333" y="753.667" type="curve" smooth="yes"/>
      <point x="203.333" y="779.162"/>
      <point x="192.036" y="797.667"/>
      <point x="164.667" y="797.667" type="curve" smooth="yes"/>
      <point x="129.232" y="797.667"/>
      <point x="124" y="778.463"/>
      <point x="124" y="748" type="curve"/>
      <point x="40.667" y="748" type="line"/>
      <point x="40.667" y="759" type="line" smooth="yes"/>
      <point x="40.667" y="836.971"/>
      <point x="93.895" y="876"/>
      <point x="168" y="876" type="curve" smooth="yes"/>
      <point x="248.33" y="876"/>
      <point x="293.333" y="832.562"/>
      <point x="293.333" y="752.333" type="curve" smooth="yes"/>
      <point x="293.333" y="715.686"/>
      <point x="276.546" y="686.101"/>
      <point x="244.333" y="668.333" type="curve"/>
      <point x="290.623" y="649.475"/>
      <point x="300" y="603.55"/>
      <point x="300" y="558.667" type="curve" smooth="yes"/>
      <point x="300" y="481.911"/>
      <point x="244.211" y="433.333"/>
      <point x="169.333" y="433.333" type="curve" smooth="yes"/>
      <point x="81.041" y="433.333"/>
      <point x="38.667" y="472.888"/>
    </contour>
  </outline>
</glyph>
<glyph name="tsecyr.loclBGR" format="2">
  <advance width="560"/>
  <outline>
    <component base="n" xScale="-1" xyScale="5.99888e-17" yScale="-1" xOffset="533" yOffset="527.667"/>
    <contour>
      <point x="440.034" y="-169.881" type="line"/>
      <point x="440.034" y="75.512" type="line"/>
      <point x="549.034" y="75.512" type="line"/>
      <point x="549.034" y="-169.881" type="line"/>
    </contour>
  </outline>
</glyph>
<glyph name="two.numr" format="2">
  <advance width="345"/>
  <outline>
    <contour>
      <point x="45.333" y="350.333" type="line"/>
      <point x="186" y="531.667" type="line" smooth="yes"/>
      <point x="202.366" y="552.855"/>
      <point x="208.667" y="566.458"/>
      <point x="208.667" y="593.333" type="curve" smooth="yes"/>
      <point x="208.667" y="617.789"/>
      <point x="196.46" y="636"/>
      <point x="170.333" y="636" type="curve" smooth="yes"/>
      <point x="137.275" y="636"/>
      <point x="132.333" y="606.997"/>
      <point x="132.333" y="580.667" type="curve"/>
      <point x="42.333" y="580.667" type="line"/>
      <point x="42.333" y="595.667" type="line" smooth="yes"/>
      <point x="42.333" y="672.533"/>
      <point x="102.018" y="714"/>
      <point x="174.333" y="714" type="curve" smooth="yes"/>
      <point x="253.879" y="714"/>
      <point x="303.667" y="666.004"/>
      <point x="303.667" y="586.667" type="curve" smooth="yes"/>
      <point x="303.667" y="545.432"/>
      <point x="287.802" y="517.413"/>
      <point x="263" y="486" type="curve" smooth="yes"/>
      <point x="163.667" y="359.333" type="line"/>
      <point x="304" y="359.333" type="line"/>
      <point x="304" y="278.667" type="line"/>
      <point x="45.333" y="278.667" type="line"/>
    </contour>
  </outline>
</glyph>
<glyph name="yucyr.loclBGR" format="2">
  <advance width="711"/>
  <anchor x="499" y="527.667" name="top"/>
  <outline>
    <component base="o" xOffset="191"/>
    <contour>
      <point x="124" y="246" type="line"/>
      <point x="124" y="321.333" type="line"/>
      <point x="296.061" y="321.333" type="line"/>
      <point x="296.061" y="246" type="line"/>
    </contour>
    <contour>
      <point x="62.333" y="707" type="line"/>
      <point x="169.667" y="707" type="line"/>
      <point x="169.667" y="0" type="line"/>
      <point x="62.333" y="0" type="line"/>
    </contour>
  </outline>
</glyph>
<glyph name="zero.numr" format="2">
  <advance width="350"/>
  <outline>
    <contour>
      <point x="41.667" y="423.667" type="curve" smooth="yes"/>
      <point x="41.667" y="567.667" type="line" smooth="yes"/>
      <point x="41.667" y="656.398"/>
      <point x="81.322" y="713.333"/>
      <point x="175" y="713.333" type="curve" smooth="yes"/>
      <point x="271.348" y="713.333"/>
      <point x="308" y="659.176"/>
      <point x="308" y="567.667" type="curve" smooth="yes"/>
      <point x="308" y="423.667" type="line" smooth="yes"/>
      <point x="308" y="332.404"/>
      <point x="274.142" y="271"/>
      <point x="175" y="271" type="curve" smooth="yes"/>
      <point x="75.657" y="271"/>
      <point x="41.667" y="332.041"/>
    </contour>
    <contour>
      <point x="214.333" y="428" type="curve" smooth="yes"/>
      <point x="214.333" y="557" type="line" smooth="yes"/>
      <point x="214.333" y="587.072"/>
      <point x="215.934" y="633"/>
      <point x="175" y="633" type="curve" smooth="yes"/>
      <point x="133.921" y="633"/>
      <point x="135" y="587.372"/>
      <point x="135" y="557" type="curve" smooth="yes"/>
      <point x="135" y="428" type="line" smooth="yes"/>
      <point x="135" y="397.074"/>
      <point x="132.873" y="351.667"/>
      <point x="175" y="351.667" type="curve" smooth="yes"/>
      <point x="217.813" y="351.667"/>
      <point x="214.333" y="396.491"/>
    </contour>
  </outline>
</glyph>
<glyph name="zero.sups" format="2">
  <advance width="350"/>
  <outline>
    <contour>
      <point x="41.667" y="586" type="curve" smooth="yes"/>
      <point x="41.667" y="730" type="line" smooth="yes"/>
      <point x="41.667" y="819.097"/>
      <point x="81.094" y="875.333"/>
      <point x="175" y="875.333" type="curve" smooth="yes"/>
      <point x="271.494" y="875.333"/>
      <point x="308" y="821.828"/>
      <point x="308" y="730" type="curve" smooth="yes"/>
      <point x="308" y="586" type="line" smooth="yes"/>
      <point x="308" y="494.738"/>
      <point x="274.142" y="433.333"/>
      <point x="175" y="433.333" type="curve" smooth="yes"/>
      <point x="75.657" y="433.333"/>
      <point x="41.667" y="494.374"/>
    </contour>
    <contour>
      <point x="214.333" y="590.333" type="curve" smooth="yes"/>
      <point x="214.333" y="719.333" type="line" smooth="yes"/>
      <point x="214.333" y="749.9"/>
      <point x="216.221" y="794.667"/>
      <point x="175" y="794.667" type="curve" smooth="yes"/>
      <point x="133.628" y="794.667"/>
      <point x="135" y="750.199"/>
      <point x="135" y="719.333" type="curve" smooth="yes"/>
      <point x="135" y="590.333" type="line" smooth="yes"/>
      <point x="135" y="559.407"/>
      <point x="132.873" y="514"/>
      <point x="175" y="514" type="curve" smooth="yes"/>
      <point x="217.813" y="514"/>
      <point x="214.333" y="558.825"/>
    </contour>
  </outline>
</glyph>
<glyph name="zhecyr.loclBGR" format="2">
  <advance width="813"/>
  <anchor x="691.333" y="644.333" name="top"/>
  <outline>
    <contour>
      <point x="459.667" y="707" type="line"/>
      <point x="459.667" y="0" type="line"/>
      <point x="352" y="0" type="line"/>
      <point x="352" y="707" type="line"/>
    </contour>
    <contour>
      <point x="514.035" y="254.367" type="line"/>
      <point x="611.599" y="309.728" type="line"/>
      <point x="797" y="0" type="line"/>
      <point x="666.667" y="0" type="line"/>
    </contour>
    <contour>
      <point x="449.887" y="258.687" type="line"/>
      <point x="449.887" y="304.801" type="line"/>
      <point x="496.206" y="304.766" type="line"/>
      <point x="642.183" y="527.667" type="line"/>
      <point x="770.849" y="527.667" type="line"/>
      <point x="578.937" y="258.682" type="line"/>
    </contour>
    <contour>
      <point x="419.667" y="246" type="line"/>
      <point x="419.667" y="321.333" type="line"/>
      <point x="589.113" y="321.333" type="line"/>
      <point x="589.113" y="246" type="line"/>
    </contour>
    <contour>
      <point x="298.839" y="254.367" type="line"/>
      <point x="201.275" y="309.728" type="line"/>
      <point x="15.8738" y="0" type="line"/>
      <point x="146.207" y="0" type="line"/>
    </contour>
    <contour>
      <point x="362.987" y="258.687" type="line"/>
      <point x="362.987" y="304.801" type="line"/>
      <point x="316.668" y="304.766" type="line"/>
      <point x="170.691" y="527.667" type="line"/>
      <point x="42.0248" y="527.667" type="line"/>
      <point x="233.937" y="258.682" type="line"/>
    </contour>
    <contour>
      <point x="393.207" y="246" type="line"/>
      <point x="393.207" y="321.333" type="line"/>
      <point x="223.761" y="321.333" type="line"/>
      <point x="223.761" y="246" type="line"/>
    </contour>
  </outline>
</glyph>
